<?xml version="1.0" standalone="no"?>
<!DOCTYPE svg PUBLIC "-//W3C//DTD SVG 1.1//EN" "http://www.w3.org/Graphics/SVG/1.1/DTD/svg11.dtd" >
<svg xmlns="http://www.w3.org/2000/svg">
<metadata></metadata>
<defs>
<font id="brandon_grot_w01_boldregular" horiz-adv-x="1357" >
<font-face units-per-em="2048" ascent="1434" descent="-614" />
<missing-glyph horiz-adv-x="452" />
<glyph horiz-adv-x="2048" />
<glyph horiz-adv-x="2048" />
<glyph unicode="&#xd;" horiz-adv-x="0" />
<glyph horiz-adv-x="0" />
<glyph unicode="&#x9;" horiz-adv-x="0" />
<glyph unicode="&#xa;" horiz-adv-x="0" />
<glyph unicode=" "  horiz-adv-x="452" />
<glyph unicode="&#x09;" horiz-adv-x="452" />
<glyph unicode="&#xa0;" horiz-adv-x="452" />
<glyph unicode="!" horiz-adv-x="634" d="M150 147q0 70 49 120t116 50q72 0 121 -50t49 -120t-49 -118.5t-121 -48.5q-68 0 -116.5 48.5t-48.5 118.5zM166 1161v234q0 16 11 27.5t28 11.5h225q16 0 27.5 -11.5t11.5 -27.5v-230l-80 -575q-2 -12 -13 -22.5t-26 -10.5h-65q-14 0 -25.5 10.5t-13.5 22.5z" />
<glyph unicode="&#x22;" horiz-adv-x="702" d="M74 1065v330q0 16 11 27.5t28 11.5h163q20 0 31.5 -14.5t5.5 -37.5l-84 -325q-4 -12 -15 -21.5t-21 -9.5h-80q-16 0 -27.5 11.5t-11.5 27.5zM424 1065v330q0 16 11 27.5t28 11.5h164q20 0 31.5 -14.5t5.5 -37.5l-84 -325q-4 -12 -15.5 -21.5t-21.5 -9.5h-80 q-16 0 -27.5 11.5t-11.5 27.5z" />
<glyph unicode="#" horiz-adv-x="1101" d="M76 424v29q0 39 39 39h159l48 335h-148q-16 0 -27.5 11.5t-11.5 27.5v29q0 16 11.5 27.5t27.5 11.5h162l65 467q2 12 12.5 22.5t24.5 10.5h29q16 0 28.5 -13.5t8.5 -31.5l-62 -455h324l68 467q2 12 13 22.5t25 10.5h25q18 0 30.5 -13.5t8.5 -31.5l-66 -455h131 q16 0 27.5 -11.5t11.5 -27.5v-29q0 -16 -11 -27.5t-28 -11.5h-145l-47 -335h133q16 0 27.5 -11.5t11.5 -27.5v-29q0 -16 -11.5 -27.5t-27.5 -11.5h-149l-45 -352q-4 -33 -39 -33h-27q-18 0 -29.5 13.5t-9.5 31.5l45 340h-326l-47 -352q-2 -14 -13 -23.5t-26 -9.5h-24 q-20 0 -31.5 13.5t-7.5 31.5l47 340h-145q-16 0 -27.5 11.5t-11.5 27.5zM379 492h326l45 335h-324z" />
<glyph unicode="$" horiz-adv-x="1075" d="M74 165.5q-6 12.5 10 35.5q14 25 30.5 55.5t35 55t38 35.5t41.5 -5q2 -2 26 -18.5t58.5 -36t78.5 -40t91 -32.5q0 100 1 196.5t1 196.5q-72 29 -144.5 66t-130.5 89t-95 125t-37 175q0 74 24.5 140.5t74.5 118.5t128 87t182 43v66q0 16 11.5 27t27.5 11h27q16 0 27.5 -11 t11.5 -27v-68q68 -6 127 -23.5t105 -39t78 -41t46 -29.5q16 -10 19.5 -30.5t-6.5 -37.5q-16 -23 -34 -52.5t-37.5 -53t-39 -35.5t-37.5 0q-6 2 -26.5 15.5t-51 30.5t-68.5 34.5t-75 30.5v-369q68 -29 141.5 -67t136 -93t103.5 -130t41 -175q0 -168 -109.5 -279.5 t-316.5 -123.5v-213q0 -16 -12.5 -26.5t-28.5 -10.5q-18 0 -41 5t-23 32v213q-84 6 -149.5 26.5t-114.5 45t-80 49t-45 36.5q-14 14 -20 26.5zM328 1092q0 -61 37.5 -108.5t115.5 -88.5v330q-78 -10 -115.5 -48t-37.5 -85zM592 203q66 10 109.5 52t43.5 101q0 115 -153 205 v-358z" />
<glyph unicode="%" horiz-adv-x="1355" d="M45 1178q0 57 21.5 107t59.5 88t88 59.5t108 21.5q57 0 107 -21.5t88 -59.5t59.5 -88t21.5 -107t-21.5 -107.5t-59.5 -88.5t-88 -59.5t-107 -21.5t-107.5 21.5t-88.5 59.5t-59.5 88t-21.5 108zM213 55l702 1358q10 20 35 21h103q23 0 34 -17.5t0 -38.5l-706 -1358 q-4 -6 -13.5 -13t-21.5 -7h-98q-23 0 -34 17.5t-1 37.5zM221 1178q0 -41 30 -71t71 -30t69.5 30t28.5 71t-29 69.5t-69 28.5q-41 0 -71 -28.5t-30 -69.5zM719 256q0 57 21.5 107.5t59.5 88t88 59t107 21.5t108.5 -21.5t89.5 -59t59.5 -88t21.5 -107.5t-21.5 -107.5 t-59.5 -88t-89 -59t-109 -21.5q-57 0 -107 21.5t-88 59t-59.5 88t-21.5 107.5zM895 256q0 -41 29.5 -70.5t70.5 -29.5t71 29.5t30 70.5t-30 69.5t-71 28.5t-70.5 -28.5t-29.5 -69.5z" />
<glyph unicode="&#x26;" horiz-adv-x="1411" d="M152 365q0 100 38.5 174.5t88 124t95.5 77t60 35.5v4l-43 47q-61 66 -101 134.5t-38 160.5q0 57 24.5 116.5t72.5 108t121 78t169 29.5q86 0 157.5 -26.5t122 -71.5t79 -105.5t28.5 -130.5q0 -80 -34 -142.5t-77 -109.5t-83.5 -76.5t-55.5 -43.5l236 -238q25 49 44 108.5 t29 118.5q6 33 19.5 47.5t48.5 3.5l113 -32q20 -6 28.5 -16.5t10.5 -21.5t0 -22.5t-5 -19.5q-27 -111 -66.5 -200t-59.5 -126l182 -172q18 -18 25.5 -38.5t-29.5 -55.5l-84 -86q-18 -16 -42 -17t-48 23l-148 150q-14 -16 -48 -45t-89 -57.5t-132 -50t-177 -21.5 q-98 0 -177 30.5t-136.5 82.5t-88 123t-30.5 149zM395 391q0 -86 61.5 -139t153.5 -53q57 0 101.5 14t77 33.5t53 40l32.5 32.5l-305 324q-12 -8 -40.5 -25.5t-58.5 -47t-52.5 -74t-22.5 -105.5zM479 1122q-2 -53 29 -94t78 -90l45 -45q12 6 40.5 23.5t58.5 44t52.5 63.5 t22.5 84q0 59 -47 106.5t-127 47.5q-72 0 -112 -41t-40 -99z" />
<glyph unicode="'" horiz-adv-x="352" d="M74 1065v330q0 16 11 27.5t28 11.5h163q20 0 31.5 -14.5t5.5 -37.5l-84 -325q-4 -12 -15 -21.5t-21 -9.5h-80q-16 0 -27.5 11.5t-11.5 27.5z" />
<glyph unicode="(" horiz-adv-x="700" d="M88 645q0 242 46 396.5t120 243.5t164 126t178 41q16 2 27.5 -7t11.5 -24l6 -135q2 -12 -6 -23.5t-19 -13.5q-152 -41 -214 -194.5t-62 -409.5q0 -258 62.5 -409.5t213.5 -192.5q14 -4 20.5 -15.5t4.5 -23.5l-6 -133q-4 -33 -39 -33q-88 6 -178 43t-164 126t-120 242.5 t-46 395.5z" />
<glyph unicode=")" horiz-adv-x="702" d="M59 4q-2 12 4.5 23.5t20.5 15.5q152 41 214 192.5t62 409.5q0 256 -62 409.5t-214 194.5q-10 2 -18.5 13.5t-6.5 23.5l7 135q0 14 11 23.5t27 7.5q88 -4 178.5 -41t164 -126t119.5 -243.5t46 -396.5t-46 -395.5t-119.5 -242.5t-163.5 -126t-179 -43q-35 0 -38 33z" />
<glyph unicode="*" horiz-adv-x="716" d="M48 967.5q3 15.5 18 25.5l170 103l-170 102q-14 10 -17.5 25.5t4.5 29.5q12 16 20.5 28.5t18.5 27.5q8 10 23.5 14t27.5 -6l148 -103l-4 181q0 16 11 27.5t28 11.5h65q16 0 27.5 -11.5t11.5 -27.5l-4 -181l147 105q12 8 28.5 5t25.5 -15l35 -56q10 -14 8 -29.5t-19 -25.5 l-170 -102l170 -105q16 -10 18.5 -25.5t-5.5 -27.5l-39 -55q-8 -14 -23.5 -17.5t-28.5 4.5l-147 103l4 -176q0 -16 -11 -27.5t-28 -11.5h-65q-16 0 -27.5 11t-11.5 28l4 178l-148 -103q-12 -10 -28.5 -6t-24.5 17l-35 55q-10 14 -7 29.5z" />
<glyph unicode="+" horiz-adv-x="1146" d="M131 651v115q0 16 11.5 27.5t27.5 11.5h307v309q0 16 11.5 26.5t27.5 10.5h115q16 0 27.5 -10.5t11.5 -26.5v-309h309q16 0 26.5 -11.5t10.5 -27.5v-115q0 -16 -10.5 -27.5t-26.5 -11.5h-309v-305q0 -16 -11.5 -26.5t-27.5 -10.5h-115q-16 0 -27.5 10.5t-11.5 26.5v305 h-307q-16 0 -27.5 11.5t-11.5 27.5z" />
<glyph unicode="," horiz-adv-x="530" d="M74 145q0 70 51 120t129 50q33 0 69.5 -13t67.5 -45t50.5 -83t19.5 -127q0 -94 -25.5 -169t-62.5 -129t-77 -90t-69 -54q-14 -10 -25.5 -10.5t-25.5 14.5l-31 33q-25 29 9 55q8 8 34.5 31.5t55 61.5t51 89t22.5 117q-2 0 -23.5 -8t-53.5 -8q-68 0 -117 48.5t-49 116.5z " />
<glyph unicode="-" horiz-adv-x="755" d="M111 430v137q0 39 39 39h456q39 0 39 -39v-137q0 -16 -11 -26.5t-28 -10.5h-456q-16 0 -27.5 10.5t-11.5 26.5z" />
<glyph unicode="." horiz-adv-x="481" d="M72 147q0 70 49 120t119 50t120 -50t50 -120t-50.5 -118.5t-119.5 -48.5q-70 0 -119 48.5t-49 118.5z" />
<glyph unicode="/" horiz-adv-x="722" d="M59 51l402 1356q8 27 37 27h147q23 0 33 -14.5t4 -37.5l-399 -1355q-4 -10 -15.5 -18.5t-21.5 -8.5h-150q-20 0 -31.5 14.5t-5.5 36.5z" />
<glyph unicode="0" horiz-adv-x="1282" d="M125 696q0 168 35 301t100.5 225.5t161.5 141.5t219 49t219 -49t161.5 -141.5t100.5 -225.5t35 -301t-35 -301t-100.5 -225t-161.5 -141t-219 -49t-219 49t-161.5 141t-100.5 225t-35 301zM393 696q0 -229 64.5 -352t183.5 -123t183.5 123t64.5 352t-64.5 352t-183.5 123 t-183.5 -122.5t-64.5 -352.5z" />
<glyph unicode="1" horiz-adv-x="731" d="M55 1108q-2 25 11 37l294 248h144q16 0 26.5 -11.5t10.5 -27.5v-1315q0 -16 -10.5 -27.5t-26.5 -11.5h-176q-16 0 -27.5 11.5t-11.5 27.5v981l-180 -39q-14 -4 -26.5 4t-14.5 23z" />
<glyph unicode="2" horiz-adv-x="1060" d="M63 39v47q51 61 121 150.5t143.5 184.5t144.5 187t122 160q47 59 75.5 116.5t28.5 110.5q0 35 -13 69t-40 59.5t-67.5 42t-96.5 16.5q-37 0 -70.5 -11.5t-63.5 -30t-53.5 -40t-41.5 -39.5q-12 -12 -27.5 -12t-27.5 12l-99 98q-10 10 -11 25.5t9 27.5q49 55 111 101 q53 37 127 68.5t166 31.5q111 0 195.5 -32.5t143 -88t88 -130.5t29.5 -156q0 -49 -10 -91.5t-28.5 -81t-43 -77.5t-55.5 -82q-33 -47 -77 -104.5t-92 -118t-95 -121t-88 -111.5h442q16 0 27.5 -11t11.5 -28v-141q0 -16 -11 -27.5t-28 -11.5h-807q-16 0 -27.5 11.5 t-11.5 27.5z" />
<glyph unicode="3" horiz-adv-x="1069" d="M65 187.5q1 15.5 11 25.5l104 100q29 25 53 0q2 -4 25 -21.5t57.5 -36.5t78.5 -35.5t91 -16.5q41 0 80 14t70 40t49 60.5t18 77.5q0 80 -71.5 141.5t-210.5 61.5h-115q-39 0 -39 41v129q0 41 39 41h115q127 0 190.5 55.5t63.5 132.5q0 43 -16.5 78t-44 59.5t-63.5 38 t-75 13.5q-80 0 -130 -34t-77 -65q-25 -29 -55 -2l-100 95q-12 10 -11.5 26.5t11.5 26.5q47 51 106 90q51 35 122 62.5t157 27.5q88 0 167.5 -26.5t139 -74.5t94.5 -118t35 -156q0 -59 -20.5 -110t-51.5 -92t-67.5 -71t-71.5 -46v-6q37 -16 80 -44t80 -70t62.5 -97.5 t25.5 -122.5q0 -86 -34 -160t-95.5 -127t-148.5 -82.5t-193 -29.5q-96 0 -168 20t-124 50t-85 61t-49 51q-10 10 -9 25.5z" />
<glyph unicode="4" horiz-adv-x="1222" d="M33 336v170l737 897q12 12 31 12h110q16 0 27.5 -11t11.5 -28v-872h164q16 0 27.5 -10.5t11.5 -26.5v-127q0 -16 -11.5 -27.5t-27.5 -11.5h-164l2 -262q0 -16 -11 -27.5t-28 -11.5h-170q-16 0 -27 11.5t-11 27.5v258h-633q-16 0 -27.5 11t-11.5 28zM303 510h410v491z" />
<glyph unicode="5" horiz-adv-x="1081" d="M95.5 187q-1.5 14 17.5 32l102 100q10 10 23.5 11.5t25.5 -8.5q2 -4 24.5 -21.5t58.5 -39t83 -38t98 -16.5t95.5 19.5t76 53t49 76.5t17.5 93q0 96 -62.5 162.5t-185.5 66.5h-315q-31 0 -47.5 23.5t-16.5 48.5v604q0 16 11.5 27.5t27.5 11.5h647q16 0 27.5 -11.5 t11.5 -27.5v-140q0 -16 -11 -27t-28 -11h-454v-273h176q109 0 195.5 -33.5t147 -93t93.5 -143.5t33 -184q0 -96 -38 -181.5t-104.5 -150t-156.5 -101t-197 -36.5q-82 0 -148.5 17t-116.5 44t-85 56.5t-53 52.5q-20 23 -21.5 37z" />
<glyph unicode="6" horiz-adv-x="1103" d="M88 545q0 150 38 269.5t99.5 214.5t137 165t151.5 120t144.5 79.5t111.5 44.5q45 12 57 -29l47 -121q8 -18 0 -33.5t-36 -25.5q-37 -12 -102.5 -43t-135.5 -81t-129 -117.5t-84 -151.5q12 8 37 17t56.5 18.5t67.5 15.5t73 6q76 0 151.5 -28.5t134 -84t95 -138.5 t36.5 -193q0 -96 -36.5 -182.5t-100 -150t-147.5 -100t-179 -36.5q-121 0 -212 45t-152 121.5t-92 180t-31 218.5zM334 514q0 -53 14 -106.5t43 -96.5t75 -70.5t107 -27.5q49 0 91.5 19.5t74 52t50 75.5t18.5 93q0 49 -18.5 93t-50 75.5t-74.5 51t-93 19.5q-51 0 -91 -17.5 t-69.5 -44t-49 -58t-27.5 -58.5z" />
<glyph unicode="7" horiz-adv-x="991" d="M61 1210v144q0 16 11.5 27.5t27.5 11.5h852q16 0 27.5 -11.5t11.5 -27.5v-15l-610 -1284q-10 -25 -26.5 -40t-43.5 -15h-151q-18 0 -34.5 7t-16.5 32v22l532 1110h-541q-16 0 -27.5 11.5t-11.5 27.5z" />
<glyph unicode="8" horiz-adv-x="1161" d="M96 373q0 68 31 125t72 102t82 75t63 40v6q-31 16 -67.5 46t-68.5 70t-53.5 91t-21.5 110q0 86 35 155t94.5 118t141 75.5t174.5 26.5q96 0 179 -26.5t143.5 -75.5t95 -118t34.5 -155q0 -59 -21.5 -108t-53 -89t-68.5 -70t-68 -48v-8q35 -18 78 -49t81 -74t63.5 -98.5 t25.5 -120.5q0 -84 -34 -156t-97.5 -125t-154.5 -82.5t-203 -29.5q-111 0 -199 29.5t-151.5 82.5t-97.5 125t-34 156zM369 377q0 -43 17 -78t47 -59.5t69 -38t80 -13.5q43 0 80.5 13.5t67.5 38t47.5 59.5t17.5 78q0 70 -54.5 132t-158.5 85q-104 -23 -158.5 -85t-54.5 -132z M395 1028q0 -70 44.5 -120.5t142.5 -73.5q96 23 141 76t45 118q0 74 -55.5 124t-134.5 50q-74 0 -128.5 -50t-54.5 -124z" />
<glyph unicode="9" horiz-adv-x="1103" d="M66 956q0 96 36.5 182.5t100 150t147.5 100t178 36.5q121 0 212 -45t152.5 -121.5t92.5 -180t31 -218.5q0 -150 -38 -269.5t-99.5 -214.5t-137 -165t-151.5 -120t-144.5 -79.5t-111.5 -44.5q-45 -12 -58 29l-47 121q-8 18 0.5 33.5t36.5 25.5q37 12 102.5 43t135 81 t129 117.5t84.5 151.5q-12 -8 -37 -17t-56.5 -18.5t-67.5 -15.5t-73 -6q-78 0 -152.5 28.5t-133 84t-95 138.5t-36.5 193zM297 952q0 -49 18.5 -93t50 -75.5t74.5 -51t92 -19.5q51 0 91.5 17.5t70 44t49 57t27.5 59.5q0 51 -14.5 105.5t-43 97.5t-74.5 70.5t-108 27.5 q-49 0 -91 -19.5t-73.5 -52.5t-50 -76t-18.5 -92z" />
<glyph unicode=":" horiz-adv-x="548" d="M127 127q0 61 43 104t104 43t104.5 -43t43.5 -104t-43 -104t-105 -43q-61 0 -104 43t-43 104zM127 692q0 61 43 104.5t104 43.5t104.5 -43t43.5 -105q0 -61 -43.5 -104t-104.5 -43t-104 43t-43 104z" />
<glyph unicode=";" horiz-adv-x="505" d="M96 692q0 61 43 104.5t105 43.5q61 0 104 -43t43 -105q0 -61 -43 -104t-104 -43t-104.5 43t-43.5 104zM104 117q0 55 41 96t105 41q27 0 57.5 -11.5t55 -37t41 -67.5t16.5 -105q0 -74 -21.5 -135.5t-51.5 -107.5t-60.5 -77.5t-50.5 -50.5q-12 -10 -23.5 -10t-24.5 12 l-28 31q-10 10 -8 22.5t12 22.5q8 6 30.5 25.5t47 51t43 76t18.5 97.5q-2 0 -19.5 -5t-41.5 -5q-57 0 -97.5 40t-40.5 97z" />
<glyph unicode="&#x3c;" horiz-adv-x="892" d="M39 465v10q0 10 6 20.5t14 14.5l711 434q20 12 38.5 2t18.5 -35v-143q0 -14 -6 -21.5t-12 -11.5l-440 -262l440 -254q6 -4 12 -11t6 -22v-143q0 -25 -18 -35t-39 2l-711 420q-8 4 -14 14.5t-6 20.5z" />
<glyph unicode="=" horiz-adv-x="999" d="M127 299v117q0 16 11.5 27.5t27.5 11.5h668q16 0 27 -11.5t11 -27.5v-117q0 -16 -11 -27.5t-27 -11.5h-668q-16 0 -27.5 11.5t-11.5 27.5zM127 731v115q0 16 11.5 27.5t27.5 11.5h668q16 0 27 -11.5t11 -27.5v-115q0 -16 -11 -27.5t-27 -11.5h-668q-16 0 -27.5 11.5 t-11.5 27.5z" />
<glyph unicode="&#x3e;" horiz-adv-x="892" d="M66 43v143q0 23 18 33l438 254l-438 262q-18 10 -18 33v143q0 25 18 35t39 -2l711 -434q8 -4 14 -14.5t6 -20.5v-10q0 -10 -6 -20.5t-14 -14.5l-711 -420q-20 -12 -38.5 -2t-18.5 35z" />
<glyph unicode="?" horiz-adv-x="919" d="M46 1247.5q1 16.5 11 26.5q43 51 103 90q51 35 125.5 62.5t173.5 27.5q80 0 152.5 -25.5t127 -71.5t86 -108.5t31.5 -138.5q0 -61 -23.5 -109.5t-57.5 -87.5t-75 -70.5t-74.5 -60t-57 -56.5t-23.5 -58v-68q0 -18 -10.5 -30.5t-30.5 -12.5h-166q-16 0 -27.5 11.5 t-11.5 27.5v86q0 74 44 127t98.5 98t98.5 89t44 98q0 55 -43 96t-121 41q-47 0 -82 -13.5t-60.5 -31t-45 -34.5t-33.5 -28q-25 -16 -45 2l-97 95q-12 10 -11 26.5zM252 147q0 70 49 120t119 50t120 -50t50 -120t-50.5 -118.5t-119.5 -48.5q-70 0 -119 48.5t-49 118.5z" />
<glyph unicode="@" horiz-adv-x="2019" d="M66 457q0 217 70.5 400t198.5 316.5t307 207t398 73.5q213 0 379 -65.5t281 -181t174 -274.5t59 -343q0 -102 -24.5 -210t-78.5 -197t-143.5 -146t-218.5 -57q-106 0 -162.5 47t-80.5 112h-17q-33 -66 -100.5 -112.5t-165.5 -46.5q-80 0 -148.5 34.5t-117.5 93t-77 137.5 t-28 167q0 92 28 171t78 135t119.5 89t151.5 33q49 0 89 -14.5t72 -34t53.5 -40t33.5 -32.5q8 25 14.5 44t14.5 31.5t23.5 18.5t43.5 6h35q16 0 27.5 -11t11.5 -28v-374q0 -70 10 -112t27.5 -65.5t41 -32t48.5 -8.5q49 0 89 32t66.5 86t41 125t14.5 149q0 141 -42 262 t-126 210t-210 140t-294 51q-170 0 -307 -54t-234.5 -156.5t-149.5 -248t-52 -327.5q0 -125 36.5 -236.5t102.5 -204t156 -164t198 -116.5q35 -16 23 -49l-49 -129q-14 -35 -45 -23q-139 51 -257 140t-204 209t-135 265.5t-49 307.5zM784 426q-4 -49 10.5 -91t39 -72 t58.5 -47t71 -17q49 0 81.5 19.5t52 50t29 70.5t11.5 83v76q-4 18 -18.5 41.5t-37 44t-53.5 35t-67 14.5q-74 0 -123.5 -57.5t-53.5 -149.5z" />
<glyph unicode="A" d="M0 53l637 1379q10 22 33 22h2h20q16 0 23.5 -6t11.5 -16l631 -1379q5 -10 5 -18q0 -11 -6 -19q-11 -16 -34 -16h-178q-23 0 -36 9t-24 32l-100 221h-612l-101 -221q-6 -16 -20 -28.5t-39 -12.5h-178q-23 0 -34 16q-6 9 -6 19q0 8 5 18zM473 489h412l-205 451h-6z" />
<glyph unicode="B" horiz-adv-x="1263" d="M186 39v1356q0 16 11.5 27.5t27.5 11.5h469q92 0 171 -29t137.5 -80t91 -120.5t32.5 -149.5q0 -59 -21.5 -111.5t-55 -94.5t-72.5 -73t-76 -47q41 -12 87 -39.5t86 -69.5t66.5 -98.5t26.5 -126.5q0 -86 -34.5 -158.5t-95 -125t-141.5 -82t-175 -29.5h-496 q-16 0 -27.5 11.5t-11.5 27.5zM451 242h247q78 0 131.5 53t53.5 133q0 39 -17.5 71.5t-47.5 56.5t-67.5 37t-76.5 13h-223v-364zM451 831h219q78 0 127 53.5t49 131.5t-49 126t-127 48h-219v-359z" />
<glyph unicode="C" horiz-adv-x="1400" d="M82 715q0 154 58.5 289t157.5 234t234.5 157.5t288.5 58.5q156 0 273.5 -48t222.5 -142q16 -15 16 -30q0 -14 -14 -28l-125 -129q-25 -27 -51 0q-66 57 -148 89t-168 32q-98 0 -182 -38t-144.5 -103.5t-95 -152.5t-34.5 -183t34.5 -182t96 -150.5t145.5 -102.5t182 -38 q92 0 170 31.5t144 85.5q12 10 26.5 10t24.5 -10l127 -132q10 -9 10 -23q0 -20 -12 -32q-104 -102 -232.5 -150t-265.5 -48q-154 0 -289 57t-234 156.5t-157.5 233.5t-58.5 288z" />
<glyph unicode="D" horiz-adv-x="1511" d="M186 39v1356q0 16 10.5 27.5t26.5 11.5h486q147 0 278 -56.5t229.5 -154t154.5 -227.5t56 -277q0 -150 -56 -281t-154.5 -228t-229.5 -153.5t-278 -56.5h-486q-16 0 -26.5 11.5t-10.5 27.5zM451 250h233q100 0 184 36t145.5 98t96.5 148t35 187q0 100 -35 185 t-96.5 147.5t-145.5 98.5t-184 36h-233v-936z" />
<glyph unicode="E" horiz-adv-x="1204" d="M186 39v1356q0 16 11.5 27.5t27.5 11.5h834q16 0 27.5 -11.5t11.5 -27.5v-168q0 -16 -11.5 -27.5t-27.5 -11.5h-606v-336h505q16 0 27.5 -11.5t11.5 -27.5v-170q0 -16 -11 -27.5t-28 -11.5h-505v-358h606q16 0 27.5 -11.5t11.5 -27.5v-168q0 -16 -11.5 -27.5t-27.5 -11.5 h-834q-16 0 -27.5 11.5t-11.5 27.5z" />
<glyph unicode="F" horiz-adv-x="1155" d="M186 39v1356q0 16 11.5 27.5t27.5 11.5h834q16 0 27.5 -11.5t11.5 -27.5v-168q0 -16 -11.5 -27.5t-27.5 -11.5h-606v-385h505q16 0 27.5 -11.5t11.5 -27.5v-168q0 -16 -11 -27.5t-28 -11.5h-505v-518q0 -16 -11.5 -27.5t-27.5 -11.5h-189q-16 0 -27.5 11.5t-11.5 27.5z " />
<glyph unicode="G" horiz-adv-x="1458" d="M84 715q0 154 57.5 289t157.5 234t233.5 157.5t286.5 58.5q139 0 267 -50t233 -140q12 -12 13 -28.5t-11 -29.5l-127 -133q-25 -25 -53 0q-135 119 -310 119q-96 0 -180 -38t-145.5 -103.5t-97 -151.5t-35.5 -182t35.5 -181t98 -148.5t146.5 -101.5t181 -38 q86 0 149.5 19.5t93.5 31.5v174h-164q-16 0 -27.5 10.5t-11.5 26.5v162q0 39 39 39h394q16 0 26 -11.5t10 -27.5v-525q0 -20 -16 -32q-63 -39 -143 -68q-68 -25 -161 -45t-204 -20q-154 0 -287 57t-233 155.5t-157.5 232.5t-57.5 288z" />
<glyph unicode="H" horiz-adv-x="1574" d="M186 39v1356q0 16 11.5 27.5t27.5 11.5h191q16 0 27.5 -11.5t11.5 -27.5v-543h667v543q0 16 11.5 27.5t27.5 11.5h189q16 0 27.5 -11.5t11.5 -27.5v-1356q0 -16 -11.5 -27.5t-27.5 -11.5h-189q-16 0 -27.5 11.5t-11.5 27.5v565h-667v-565q0 -16 -11.5 -27.5t-27.5 -11.5 h-191q-16 0 -27.5 11.5t-11.5 27.5z" />
<glyph unicode="I" horiz-adv-x="641" d="M186 39v1356q0 16 11.5 27.5t27.5 11.5h191q16 0 27.5 -11.5t11.5 -27.5v-1356q0 -16 -11.5 -27.5t-27.5 -11.5h-191q-16 0 -27.5 11.5t-11.5 27.5z" />
<glyph unicode="J" horiz-adv-x="856" d="M-33 129q-7 12 -7 23q0 15 11 28l107 109q15 14 30 14q16 0 31 -16q20 -23 52 -44.5t83 -21.5q31 0 59.5 12.5t52.5 38t38 64.5t14 92v967q0 16 11.5 27.5t27.5 11.5h193q16 0 27.5 -11.5t11.5 -27.5v-967q0 -106 -34 -190t-92.5 -141.5t-136 -87t-167.5 -29.5 q-68 0 -120.5 17t-90 40.5t-63.5 49.5t-38 42z" />
<glyph unicode="K" horiz-adv-x="1341" d="M186 49v1335q0 20 13.5 35t36.5 15h180q20 0 34.5 -14.5t14.5 -35.5v-553l516 582q6 8 15.5 14.5t23.5 6.5h205q29 0 41 -26t-9 -48l-534 -602l573 -686q9 -12 9 -26q0 -10 -4 -20q-11 -26 -41 -26h-224q-16 0 -24 5t-13 9l-534 660v-625q0 -20 -14.5 -34.5t-34.5 -14.5 h-180q-23 0 -36.5 14.5t-13.5 34.5z" />
<glyph unicode="L" horiz-adv-x="1034" d="M186 39v1356q0 16 11.5 27.5t27.5 11.5h189q16 0 27.5 -11.5t11.5 -27.5v-1149h522q16 0 27.5 -11.5t11.5 -27.5v-168q0 -16 -11.5 -27.5t-27.5 -11.5h-750q-16 0 -27.5 11.5t-11.5 27.5z" />
<glyph unicode="M" horiz-adv-x="1787" d="M92 47l244 1376q2 12 11 21.5t26 9.5h33q25 0 34 -20l451 -967h6l451 967q10 20 34 20h33q16 0 25.5 -9t11.5 -22l242 -1376q1 -6 1 -12q1 -14 -7 -23q-10 -12 -31 -12h-187q-14 0 -24 10t-14 21l-121 776h-6l-359 -805q-8 -22 -33 -22h-2h-37q-25 0 -34 22l-363 805h-6 l-119 -776q-2 -10 -12 -20.5t-25 -10.5h-184q-40 0 -40 37q0 4 1 10z" />
<glyph unicode="N" horiz-adv-x="1583" d="M186 39v1378q0 16 11.5 26.5t27.5 10.5h51l852 -905h2v846q0 16 11.5 27.5t27.5 11.5h189q16 0 27.5 -11.5t11.5 -27.5v-1379q0 -16 -11.5 -26t-27.5 -10h-49l-856 940h-2v-881q0 -16 -11.5 -27.5t-27.5 -11.5h-187q-16 0 -27.5 11.5t-11.5 27.5z" />
<glyph unicode="O" horiz-adv-x="1638" d="M84 715q0 154 57.5 289t156.5 234t233.5 157.5t287.5 58.5q154 0 288 -58.5t234.5 -157.5t157.5 -234.5t57 -288.5q0 -154 -57 -288t-157.5 -233.5t-234.5 -156.5t-288 -57t-288 57t-233 156.5t-156.5 233.5t-57.5 288zM350 715q0 -96 37 -182.5t100.5 -150t149.5 -100 t182 -36.5t182 36.5t151 100t101.5 149.5t36.5 183q0 96 -36.5 182t-101.5 150.5t-151 102.5t-182 38t-182 -38t-149.5 -102.5t-100.5 -150.5t-37 -182z" />
<glyph unicode="P" horiz-adv-x="1212" d="M186 39v1356q0 16 11.5 27.5t27.5 11.5h482q94 0 178 -36t146.5 -97.5t98 -144.5t35.5 -175q0 -96 -35.5 -179t-98 -146.5t-145.5 -99.5t-177 -36h-256v-481q0 -16 -11.5 -27.5t-27.5 -11.5h-189q-16 0 -27.5 11.5t-11.5 27.5zM453 770h237q43 0 81 16.5t67.5 45t46 67.5 t16.5 84q0 43 -16.5 79t-46 62.5t-67.5 42t-81 15.5h-237v-412z" />
<glyph unicode="Q" horiz-adv-x="1640" d="M84 715q0 154 57.5 289t156.5 234t233.5 157.5t287.5 58.5q154 0 288 -58.5t234.5 -157.5t157.5 -234.5t57 -288.5q0 -104 -28.5 -201.5t-81.5 -181.5t-127 -153.5t-162 -119.5l256 -403q14 -23 3 -42.5t-36 -19.5h-217q-6 0 -17 5.5t-16 15.5l-219 371q-25 -4 -49 -5 t-43 -1q-154 0 -288 57t-233 156.5t-156.5 233.5t-57.5 288zM350 715q0 -96 37 -182.5t100.5 -150t149.5 -100t182 -36.5t182 36.5t151 100t101.5 149.5t36.5 183q0 96 -36.5 182t-101.5 150.5t-151 102.5t-182 38t-182 -38t-149.5 -102.5t-100.5 -150.5t-37 -182z" />
<glyph unicode="R" horiz-adv-x="1363" d="M186 39v1356q0 16 11.5 27.5t27.5 11.5h586q92 0 173 -35t142.5 -94.5t96 -139.5t34.5 -172q0 -72 -22.5 -134t-62 -115.5t-95 -95.5t-123.5 -68l281 -521q10 -20 1 -39.5t-36 -19.5h-215q-14 0 -21.5 6t-11.5 12l-272 543h-227v-522q0 -16 -11.5 -27.5t-27.5 -11.5h-189 q-16 0 -27.5 11.5t-11.5 27.5zM455 780h333q41 0 78 16.5t64.5 45t44 66.5t16.5 81q0 41 -16.5 77t-44 63.5t-64.5 43t-78 15.5h-333v-408z" />
<glyph unicode="S" horiz-adv-x="1110" d="M94 164q-2 3 -2 8q0 11 10 29l74 127q12 23 33.5 23.5t36.5 -9.5q4 -2 33.5 -22.5t74.5 -43t98.5 -42t102.5 -19.5q80 0 133 46t53 112q0 78 -65.5 135t-194.5 110q-72 29 -141.5 68t-123.5 92t-87 123t-33 160q0 68 27 138.5t82 126.5t142 92t210 36q78 0 146.5 -17.5 t122 -40t89 -45t52.5 -34.5q16 -10 19 -30.5t-7 -37.5l-78 -116q-12 -18 -32.5 -27.5t-39.5 2.5q-6 4 -35.5 22.5t-70.5 38t-88 36t-90 16.5q-88 0 -134 -47.5t-46 -96.5q0 -72 58 -125t183 -104q74 -31 151 -70t138 -93t100 -128t39 -172q0 -80 -32.5 -152.5t-94 -129 t-148.5 -90t-196 -33.5q-96 0 -173 19t-133 46t-93 53.5t-51 40.5q-13 13 -19 25z" />
<glyph unicode="T" horiz-adv-x="1026" d="M27 1227v168q0 16 11 27.5t28 11.5h895q16 0 27 -11.5t11 -27.5v-168q0 -16 -11 -27.5t-27 -11.5h-314v-1149q0 -16 -11 -27.5t-28 -11.5h-190q-16 0 -27.5 11.5t-11.5 27.5v1149h-313q-16 0 -27.5 11t-11.5 28z" />
<glyph unicode="U" horiz-adv-x="1472" d="M166 543v852q0 16 11 27.5t28 11.5h194q16 0 27.5 -11.5t11.5 -27.5v-838q0 -66 21.5 -122t60.5 -98t93.5 -66.5t121.5 -24.5q68 0 122 24.5t94 65.5t61.5 97t21.5 122v840q0 16 11.5 27.5t27.5 11.5h195q16 0 27.5 -11.5t11.5 -27.5v-852q0 -117 -44 -219.5t-121 -179 t-181.5 -120.5t-225.5 -44t-224 44t-180 120.5t-121 179t-44 219.5z" />
<glyph unicode="V" d="M0 1380q-5 10 -5 18q0 10 6 19q11 17 34 17h209q14 0 22 -7.5t13 -15.5l393 -881h14l393 881q4 8 12.5 15.5t22.5 7.5h209q23 0 34 -16q6 -9 6 -19q0 -9 -5 -19l-635 -1378q-12 -22 -33 -22h-2h-20q-25 0 -35 22z" />
<glyph unicode="W" horiz-adv-x="1841" d="M59 1384q-2 8 -2 15q1 11 7 21q10 14 32 14h189q12 0 22 -9.5t15 -19.5l213 -817h8l325 844q8 22 33 22h2h37q27 0 35 -22l328 -844h8l209 817q4 10 14 19.5t22 9.5h189q23 0 33 -14q6 -8 6 -20q0 -7 -2 -16l-387 -1376q-8 -28 -35 -28h-2h-33q-27 0 -35 22l-366 928h-11 l-362 -928q-4 -10 -11.5 -16t-23.5 -6h-33q-12 0 -22 8t-15 20z" />
<glyph unicode="X" horiz-adv-x="1294" d="M59 18q-5 8 -5 18t7 21l426 678l-409 641q-12 20 -2 39t37 19h237q12 0 20.5 -6.5t12.5 -12.5l262 -434h2l266 434q4 6 12.5 12.5t20.5 6.5h238q27 0 37 -18.5t-2 -39.5l-412 -641l426 -678q7 -13 7 -23q0 -9 -5 -17q-10 -17 -37 -17h-221q-12 0 -21.5 6t-13.5 12 l-293 469h-6l-289 -469q-4 -6 -13 -12t-22 -6h-221q-29 0 -39 18z" />
<glyph unicode="Y" horiz-adv-x="1193" d="M-8 1414q10 20 35 20h209q12 0 20 -6.5t12 -12.5l328 -471l328 471q4 6 12 12.5t20 6.5h211q25 0 35 -20q5 -8 5 -18q0 -11 -7 -22l-473 -682v-653q0 -16 -11 -27.5t-28 -11.5h-188q-16 0 -27.5 11.5t-11.5 27.5v651l-467 684q-7 11 -7 22q0 9 5 18z" />
<glyph unicode="Z" horiz-adv-x="1101" d="M51 39v37l611 1102v8h-512q-16 0 -27.5 11t-11.5 28v170q0 16 11 27.5t28 11.5h856q16 0 27 -11.5t11 -27.5v-27l-602 -1116v-4h523q16 0 27.5 -11.5t11.5 -27.5v-170q0 -16 -11.5 -27.5t-27.5 -11.5h-875q-16 0 -27.5 11.5t-11.5 27.5z" />
<glyph unicode="[" horiz-adv-x="714" d="M135 -575v1970q0 16 11.5 27.5t27.5 11.5h463q16 0 27.5 -11.5t11.5 -27.5v-127q0 -16 -11.5 -27.5t-27.5 -11.5h-266v-1639h266q16 0 27.5 -10t11.5 -26v-129q0 -16 -11.5 -27.5t-27.5 -11.5h-463q-16 0 -27.5 11t-11.5 28z" />
<glyph unicode="\" horiz-adv-x="731" d="M41 1382q-6 23 4 37.5t33 14.5h155q29 0 37 -27l402 -1356q6 -23 -5.5 -37t-31.5 -14h-158q-10 0 -21.5 8t-15.5 19z" />
<glyph unicode="]" horiz-adv-x="714" d="M39 -446q0 16 11 26t28 10h266v1639h-266q-16 0 -27.5 11t-11.5 28v127q0 16 11 27.5t28 11.5h463q16 0 27.5 -11.5t11.5 -27.5v-1970q0 -16 -11.5 -27.5t-27.5 -11.5h-463q-16 0 -27.5 11t-11.5 28v129z" />
<glyph unicode="^" horiz-adv-x="1073" d="M73.5 806.5q-10.5 18.5 2.5 39.5l426 596q4 8 13 14t22 6h10q12 0 21.5 -6t13.5 -14l415 -596q12 -20 2 -39t-34 -19h-142q-10 0 -19 6.5t-13 12.5l-252 346l-256 -346q-4 -6 -13.5 -12.5t-19.5 -6.5h-141q-25 0 -35.5 18.5z" />
<glyph unicode="_" horiz-adv-x="849" d="M39 -59q0 39 39 39h694q39 0 39 -39v-80q0 -16 -11.5 -26.5t-27.5 -10.5h-694q-16 0 -27.5 10t-11.5 27v80z" />
<glyph unicode="`" horiz-adv-x="618" d="M103.5 1259.5q-5.5 14.5 5.5 34.5l57 105q8 14 23.5 15t29.5 -9l336 -199q10 -4 14 -15t-2 -24l-37 -73q-12 -29 -51 -13l-358 158q-12 6 -17.5 20.5z" />
<glyph unicode="a" horiz-adv-x="874" d="M63 260q0 111 85 184.5t243 73.5q31 0 57.5 -4t47.5 -8q23 -6 45 -10v11q1 69 -23 99q-26 32 -84 31q-29 0 -61.5 -3t-64.5 -7t-58.5 -9.5t-44.5 -11.5q-23 -6 -33 5.5t-14 31.5l-19 107q-4 23 5.5 35t23.5 16q6 2 31.5 8t64.5 13t86 12.5t96 5.5q96 0 158 -24.5 t96.5 -71t48 -112t13.5 -149.5v-444q0 -16 -11.5 -27.5t-27.5 -11.5h-74q-10 0 -18 6t-17 23l-24 55q-35 -33 -95.5 -68.5t-154.5 -35.5q-123 0 -200 74.5t-77 205.5zM289 260q0 -47 29.5 -76.5t76.5 -29.5q25 0 48.5 9t43 21.5t32.5 25.5t18 23v113q-16 6 -35 12 q-16 4 -37 8.5t-43 4.5q-59 0 -96 -31t-37 -80z" />
<glyph unicode="b" horiz-adv-x="1024" d="M123 39v1356q0 16 11 27.5t28 11.5h174q16 0 27.5 -11.5t11.5 -27.5v-592q29 10 75 23.5t107 13.5q92 0 167 -34t128 -92.5t82 -136t29 -167.5q0 -88 -30 -167t-83 -137.5t-125 -92t-156 -33.5q-66 0 -114.5 19t-83.5 42q-39 27 -70 61l-20 -63q-10 -39 -39 -39h-80 q-16 0 -27.5 11.5t-11.5 27.5zM367 334q6 -18 18 -42t32.5 -43.5t50.5 -33.5t71 -14q82 0 134 61.5t52 147.5t-56.5 147t-142.5 61q-39 0 -68.5 -7t-49.5 -17q-23 -10 -41 -23v-237z" />
<glyph unicode="c" horiz-adv-x="872" d="M59 410q0 90 36 168.5t96.5 137t139.5 91.5t165 33q96 0 169.5 -37t133.5 -109q10 -14 8 -30.5t-19 -26.5l-94 -90q-14 -12 -27.5 -8t-23.5 14q-25 29 -61.5 47t-79.5 18q-41 0 -78 -16t-64.5 -45t-43 -66.5t-15.5 -80.5q0 -88 57.5 -148.5t141.5 -60.5q66 0 100.5 25.5 t63.5 52.5q25 25 51 6l88 -76q22 -18 22 -36q0 -11 -8 -21q-53 -82 -133 -127t-190 -45q-86 0 -165 32.5t-139.5 90t-95.5 136.5t-35 171z" />
<glyph unicode="d" horiz-adv-x="1024" d="M61 410q0 90 29 167.5t82 136t128 92.5t167 34q61 0 107.5 -13.5t74.5 -23.5v592q0 16 11.5 27.5t27.5 11.5h174q16 0 27.5 -11.5t11.5 -27.5v-1356q0 -16 -11 -27.5t-28 -11.5h-80q-29 0 -39 39l-20 63q-31 -35 -70 -61q-35 -23 -84 -42t-114 -19q-84 0 -156 33.5 t-125 92t-83 137.5t-30 167zM299 410q0 -86 52 -147.5t134 -61.5q41 0 71 14t50.5 33.5t32.5 43t18 42.5v237q-18 12 -41 23q-20 10 -49.5 17t-68.5 7q-86 0 -142.5 -61t-56.5 -147z" />
<glyph unicode="e" horiz-adv-x="911" d="M61 410q0 86 31 164.5t86 137t132 93.5t169 35q80 0 149.5 -29t122 -79t82 -120.5t29.5 -152.5q0 -10 -1 -27.5t-3 -28.5q-2 -16 -13 -25t-26 -9h-524q2 -31 16.5 -63t40 -57.5t60 -42t80.5 -16.5q47 0 89 15.5t70 36.5q35 20 54 0l83 -97q10 -10 12.5 -25.5t-14.5 -27.5 q-51 -47 -127.5 -79.5t-177.5 -32.5q-92 0 -168.5 33.5t-133 92t-87.5 137.5t-31 167zM313 512h310q-4 57 -47.5 98t-102.5 41q-61 0 -106 -40t-54 -99z" />
<glyph unicode="f" horiz-adv-x="704" d="M63 643v137q0 39 39 39h70v221q0 100 29.5 178t81 130.5t121 79t151.5 26.5t147.5 -27.5t94.5 -52.5q10 -8 12 -22q1 -4 1 -7q0 -11 -5 -18l-70 -131q-6 -12 -20.5 -15t-28.5 5q-20 12 -53 26.5t-68 14.5q-66 0 -101.5 -48.5t-35.5 -138.5v-221h205q39 0 39 -39v-137 q0 -16 -11.5 -27.5t-27.5 -11.5h-205v-565q0 -16 -11 -27.5t-28 -11.5h-178q-16 0 -27.5 11.5t-11.5 27.5v565h-70q-16 0 -27.5 11.5t-11.5 27.5z" />
<glyph unicode="g" horiz-adv-x="946" d="M37 61q0 59 23.5 102.5t52.5 72.5q35 33 77 55q-18 20 -30 49q-12 25 -21.5 60.5t-9.5 82.5q0 72 27.5 136.5t75 113.5t113 78t140.5 29h373q39 0 39 -39v-68q0 -10 -6 -20.5t-17 -14.5l-114 -36q23 -18 41 -50q16 -27 28.5 -66.5t12.5 -92.5q0 -61 -24.5 -119t-70 -103 t-111 -72.5t-144.5 -27.5q-59 0 -99.5 8t-64.5 8q-23 0 -49.5 -20.5t-26.5 -56.5q0 -33 23.5 -51.5t58.5 -18.5h262q70 0 131 -19.5t107.5 -56.5t73 -90t26.5 -121q0 -72 -28.5 -134t-85 -110.5t-140.5 -76t-195 -27.5q-115 0 -193.5 25.5t-128.5 65.5t-72.5 90.5 t-22.5 99.5q0 45 16 79.5t37.5 58t41 38t27.5 18.5v6q-12 4 -37.5 17.5t-51 38t-45 64.5t-19.5 95zM303 -309q0 -53 48 -87t132 -34q86 0 138.5 35t52.5 94q0 14 -6 31.5t-23.5 33t-46.5 25.5t-74 10q-35 0 -67.5 -2t-65.5 -6q-10 -4 -24.5 -10t-28.5 -18.5t-24.5 -29.5 t-10.5 -42zM348 473q0 -66 41 -106.5t103 -40.5q63 0 102 41t39 106q0 66 -39 107t-102 41q-61 0 -102.5 -41t-41.5 -107z" />
<glyph unicode="h" horiz-adv-x="1064" d="M123 39v1356q0 16 11 27.5t28 11.5h174q16 0 27.5 -11.5t11.5 -27.5v-623q31 23 88 45.5t129 22.5q98 0 166.5 -35t114 -91.5t65.5 -130t20 -151.5v-393q0 -16 -11 -27.5t-27 -11.5h-166q-16 0 -27.5 11.5t-11.5 27.5v395q0 86 -44 135t-118 49q-72 0 -117 -40.5 t-61 -104.5v-434q0 -39 -43 -39h-170q-16 0 -27.5 11.5t-11.5 27.5z" />
<glyph unicode="i" horiz-adv-x="493" d="M104 1251q0 59 40 100.5t100 41.5q59 0 101 -41t42 -101q0 -59 -42 -100t-101 -41t-99.5 41t-40.5 100zM123 39v741q0 16 11 27.5t28 11.5h170q16 0 27.5 -11t11.5 -28v-741q0 -16 -11.5 -27.5t-27.5 -11.5h-170q-16 0 -27.5 11.5t-11.5 27.5z" />
<glyph unicode="j" horiz-adv-x="495" d="M-262 -532v6q0 10 4 18l68 131q6 12 20 15.5t29 -5.5q20 -12 53 -26.5t68 -14.5q70 0 106.5 48.5t36.5 138.5v1001q0 16 11 27.5t28 11.5h172q16 0 27.5 -11t11.5 -28v-1001q0 -102 -29 -179t-80 -129.5t-120.5 -79t-151.5 -26.5t-148.5 27.5t-93.5 52.5q-10 8 -12 23z M106 1251q0 59 40 100.5t100 41.5q59 0 101 -41t42 -101q0 -59 -42 -100t-101 -41t-99.5 41t-40.5 100z" />
<glyph unicode="k" horiz-adv-x="1001" d="M123 39v1356q0 16 11 27.5t28 11.5h174q16 0 27.5 -11.5t11.5 -27.5v-887l282 287q10 10 22.5 17t29.5 7h186q27 0 35 -21.5t-8 -37.5l-306 -311l365 -392q11 -11 11 -23q0 -6 -3 -14q-8 -20 -35 -20h-221q-23 0 -35 16l-323 369v-346q0 -16 -11.5 -27.5t-27.5 -11.5 h-174q-16 0 -27.5 11.5t-11.5 27.5z" />
<glyph unicode="l" horiz-adv-x="495" d="M123 39v1356q0 16 11 27.5t28 11.5h172q16 0 27.5 -11.5t11.5 -27.5v-1356q0 -16 -11.5 -27.5t-27.5 -11.5h-172q-16 0 -27.5 11.5t-11.5 27.5z" />
<glyph unicode="m" horiz-adv-x="1595" d="M123 39v741q0 16 11 27.5t28 11.5h76q27 0 34 -22l29 -78q12 14 36.5 34.5t59.5 40t79 33t99 13.5q88 0 152 -33t115 -94q12 14 38.5 35.5t63.5 42t84 35t102 14.5q98 0 167 -34t111 -90.5t61.5 -131t19.5 -154.5v-391q0 -16 -11.5 -27.5t-27.5 -11.5h-166 q-16 0 -27.5 11.5t-11.5 27.5v405q0 80 -38 127t-115 47q-45 0 -77 -13t-54 -30q-25 -20 -41 -43v-24q0 -10 1 -24.5t1 -28.5v-416q0 -16 -11.5 -27.5t-27.5 -11.5h-154q-16 0 -27.5 11.5t-11.5 27.5v405q0 80 -37 127t-114 47q-39 0 -68 -12t-49.5 -31.5t-33.5 -42 t-21 -43.5v-450q0 -16 -11.5 -27.5t-27.5 -11.5h-166q-16 0 -27.5 11.5t-11.5 27.5z" />
<glyph unicode="n" horiz-adv-x="1062" d="M123 39v741q0 16 11 27.5t28 11.5h78q25 0 34 -24l29 -76q12 12 35.5 32.5t60.5 40t85 34t108 14.5q98 0 166.5 -34t112.5 -90.5t64.5 -130t20.5 -153.5v-393q0 -16 -11 -27.5t-27 -11.5h-168q-16 0 -27.5 11.5t-11.5 27.5v405q0 80 -40 127t-114 47q-41 0 -72.5 -12 t-56.5 -31.5t-40 -42t-23 -43.5v-450q0 -23 -11.5 -31t-40.5 -8h-151q-16 0 -27.5 11.5t-11.5 27.5z" />
<glyph unicode="o" horiz-adv-x="958" d="M59 412q0 86 33 163.5t90.5 136t134 93.5t162.5 35t163 -35t134.5 -93.5t90 -136t32.5 -163.5q0 -88 -32.5 -167t-90 -137.5t-134.5 -93t-163 -34.5t-162.5 34.5t-134 93t-90.5 137.5t-33 167zM283 412q0 -88 56 -149.5t140 -61.5q41 0 77 16t62.5 45t42 68t15.5 82 t-15.5 80.5t-42 65.5t-62.5 44t-77 16t-76.5 -16t-62.5 -44t-42 -65.5t-15 -80.5z" />
<glyph unicode="p" horiz-adv-x="1024" d="M123 -575v1355q0 16 11 27.5t28 11.5h80q25 0 34 -24l27 -68q12 14 35.5 34.5t57.5 37t78 29t93 12.5q84 0 157 -34t126 -92.5t83 -137t30 -166.5q0 -90 -33 -169t-88.5 -137.5t-129 -91t-155.5 -32.5q-59 0 -109.5 16t-72.5 29v-600q0 -18 -10.5 -28.5t-38.5 -10.5h-164 q-16 0 -27.5 11t-11.5 28zM365 248q18 -14 41 -25q20 -10 49.5 -16t68.5 -6q86 0 142.5 61.5t56.5 147.5t-52.5 147t-138.5 61q-39 0 -68.5 -13t-50 -32.5t-32.5 -41t-16 -37.5v-246z" />
<glyph unicode="q" horiz-adv-x="1024" d="M61 410q0 88 30 166.5t83 137t126 92.5t157 34q49 0 93 -12.5t78 -29t57.5 -37t35.5 -34.5l27 68q8 25 34 24h80q16 0 27.5 -11t11.5 -28v-1355q0 -16 -11 -27.5t-28 -11.5h-164q-29 0 -39 10t-10 29v600q-23 -12 -73 -28.5t-109 -16.5q-84 0 -157.5 32.5t-129 91 t-87.5 137.5t-32 169zM301 406q0 -86 56.5 -145.5t142.5 -59.5q39 0 68.5 6t49.5 16q23 10 41 25v246q-4 16 -16 37.5t-32.5 41t-50.5 32.5t-68 13q-43 0 -78 -17t-59.5 -46t-39 -67.5t-14.5 -81.5z" />
<glyph unicode="r" horiz-adv-x="698" d="M123 39v741q0 16 11 27.5t28 11.5h78q27 0 36 -26l29 -80q10 14 29.5 36.5t49.5 42t67.5 34t85.5 14.5q37 0 68.5 -5.5t54.5 -16.5q24 -10 33 -26q5 -8 5 -18q0 -8 -4 -16l-76 -133q-8 -14 -21 -19.5t-26 0.5q-4 2 -23.5 7t-35.5 5q-61 0 -98 -30.5t-47 -52.5v-496 q0 -39 -48 -39h-157q-16 0 -27.5 11.5t-11.5 27.5z" />
<glyph unicode="s" horiz-adv-x="745" d="M68 598q0 47 17 90t54 77t94.5 54.5t135.5 20.5q92 0 155.5 -20.5t96.5 -43.5q14 -10 20 -24.5t-2 -30.5l-51 -105q-8 -14 -22.5 -16t-26.5 2q-27 12 -56 21q-25 8 -55.5 15t-58.5 7q-37 0 -53.5 -13.5t-16.5 -33.5q0 -29 27.5 -43t85.5 -37q59 -23 109 -48.5t87 -59 t58.5 -77.5t21.5 -104q0 -51 -21.5 -96t-63.5 -79t-102.5 -54t-138.5 -20q-102 0 -170.5 25t-101.5 50q-10 8 -14 19.5t2 23.5l55 111q6 16 19.5 19t27.5 -5q27 -14 58 -24q27 -10 60.5 -17.5t68.5 -7.5q31 0 50 12.5t19 38.5q0 29 -27.5 49.5t-109.5 53.5 q-119 47 -175 111.5t-56 158.5z" />
<glyph unicode="t" horiz-adv-x="706" d="M59 643v137q0 16 10.5 27.5t26.5 11.5h70v228q0 16 11 27t28 11l168 2q16 0 26.5 -11t10.5 -27v-230h180q39 0 39 -39v-137q0 -16 -11.5 -27.5t-27.5 -11.5h-180v-328q0 -43 19.5 -54t43.5 -11q27 0 55.5 8t44.5 14q35 12 45 -22l41 -129q3 -8 3 -16t-3 -14 q-6 -14 -22 -19q-4 -2 -28.5 -11.5t-59.5 -18.5t-77 -16t-79 -7q-119 0 -173 69.5t-54 194.5v360h-70q-16 0 -26.5 11.5t-10.5 27.5z" />
<glyph unicode="u" horiz-adv-x="1030" d="M109 383v397q0 16 11 27.5t27 11.5h168q16 0 27.5 -11t11.5 -28v-403q0 -82 39 -129t111 -47q66 0 109.5 49t54.5 104v426q0 23 10 31t35 8h155q16 0 27.5 -11t11.5 -28v-741q0 -16 -11 -27.5t-28 -11.5h-75q-16 0 -25.5 9t-13.5 22l-25 67q-14 -12 -35.5 -32.5 t-54.5 -39t-78 -32.5t-106 -14q-96 0 -162 33.5t-107 90t-59 129t-18 150.5z" />
<glyph unicode="v" horiz-adv-x="856" d="M12 804q8 14 31 15h178q16 0 24.5 -6t12.5 -16l166 -381h4l176 381q8 16 20.5 19t28.5 3h160q23 0 31 -14q4 -6 4 -14q0 -10 -6 -21l-375 -770q-4 -8 -12.5 -14t-22.5 -6h-10q-14 0 -22.5 6t-12.5 14l-373 770q-6 11 -6 21q0 7 4 13z" />
<glyph unicode="w" horiz-adv-x="1261" d="M37 772q-5 10 -5 18q0 10 6 16q11 14 34 13h147q10 0 21.5 -7t15.5 -17l123 -367h2l209 393q4 6 11 12.5t22 6.5h16q23 0 33 -19l207 -393h2l123 367q6 16 18 20t29 4h133q23 0 34 -13q6 -8 6 -18q0 -7 -3 -16l-256 -770q-8 -22 -35 -22h-2h-8q-23 0 -33 18l-258 477h-2 l-256 -477q-10 -18 -33 -18h-10q-27 0 -35 22z" />
<glyph unicode="x" horiz-adv-x="923" d="M41 20q-2 6 -2 11q0 14 10 28l266 359l-258 342q-16 20 -6 39.5t37 19.5h170q20 0 36.5 -4t31.5 -24l133 -193h2l135 193q12 16 25.5 22t35.5 6h185q27 1 34 -19q2 -6 2 -12q0 -14 -12 -28l-258 -340l260 -361q9 -13 9 -26q0 -7 -2 -13q-7 -20 -31 -20h-180q-35 0 -58 33 l-145 205h-2l-156 -222q-12 -16 -33 -16h-196q-27 0 -33 20z" />
<glyph unicode="y" horiz-adv-x="948" d="M16 766q-5 9 -5 18q0 10 7 18q11 17 33 17h185q23 0 34 -22l207 -463h2l205 463q8 16 19.5 19t29.5 3h164q25 0 35 -17q5 -8 5 -17t-5 -19l-627 -1356q-4 -10 -13 -17t-22 -7h-176q-23 0 -34 16t-1 39l291 616z" />
<glyph unicode="z" horiz-adv-x="749" d="M61 39v20l291 537v4h-233q-16 0 -26.5 11.5t-10.5 27.5v141q0 16 10 27.5t27 11.5h540q23 1 36 -17q6 -9 6 -18q0 -10 -7 -20l-297 -541v-6h221q39 0 39 -39v-139q0 -16 -11 -27.5t-28 -11.5h-518q-16 0 -27.5 11.5t-11.5 27.5z" />
<glyph unicode="{" horiz-adv-x="806" d="M39 354v101q0 16 9 23t20 11q6 2 29.5 11.5t49 28t45 44t19.5 58.5v260q0 168 50 276.5t125 171t164 87t169 28.5q37 4 41 -35l8 -129q2 -16 -8 -25.5t-21 -11.5q-121 -27 -197.5 -115.5t-76.5 -246.5v-215q0 -66 -23.5 -115t-54.5 -82t-58.5 -50t-33.5 -19v-9 q20 -8 50 -25.5t56.5 -48t45 -75.5t18.5 -107v-219q0 -158 76.5 -246t197.5 -112q10 -4 20.5 -13.5t8.5 -25.5l-8 -129q-2 -16 -13.5 -26.5t-27.5 -8.5q-80 2 -169 27.5t-164 87t-125 169t-50 277.5v252q0 35 -15.5 59.5t-37 42t-46 25.5t-42.5 12q-12 2 -21.5 11.5 t-9.5 25.5z" />
<glyph unicode="|" horiz-adv-x="368" d="M133 -578v2096q0 16 11.5 27t27.5 11h27q16 0 26.5 -11t10.5 -27v-2096q0 -16 -11.5 -26t-27.5 -10h-25q-16 0 -27.5 10t-11.5 26z" />
<glyph unicode="}" horiz-adv-x="806" d="M39 -471q-2 16 8 25.5t21 13.5q121 25 197.5 113t76.5 245v219q0 61 18.5 106.5t45 76t56.5 48t50 25.5v9q-6 2 -33.5 19t-58.5 50t-54.5 82t-23.5 115v215q0 158 -77 247t-197 115q-10 2 -20.5 11.5t-8.5 25.5l8 129q4 39 41 35q80 -4 169 -28.5t164 -87t125 -171 t50 -276.5v-260q0 -33 19.5 -58.5t45 -44t49 -27.5t29.5 -12q10 -4 19.5 -11t9.5 -23v-101q0 -16 -9 -25.5t-22 -11.5q-18 -4 -42.5 -12t-46 -25.5t-37 -42t-15.5 -59.5v-252q0 -170 -50 -277.5t-125 -169t-164 -87t-169 -27.5q-16 -2 -27.5 8.5t-13.5 26.5z" />
<glyph unicode="~" horiz-adv-x="1091" d="M55.5 511.5q-2.5 14.5 7.5 25.5q43 55 95 100q43 39 98 70.5t115 31.5q66 0 115 -27.5t92 -56.5q31 -20 68.5 -42.5t80.5 -22.5q53 0 92 38t60 68q12 16 28.5 16.5t30.5 -12.5l86 -90q10 -10 12 -24.5t-8 -24.5q-43 -57 -92 -100q-41 -39 -95.5 -70t-113.5 -31 q-74 0 -126 29t-99 60q-29 20 -60.5 38.5t-72.5 18.5q-53 0 -92 -37t-60 -68q-10 -16 -27.5 -17t-29.5 13l-45.5 45.5t-46.5 44.5q-10 10 -12.5 24.5z" />
<glyph unicode="&#xa1;" horiz-adv-x="544" d="M104 672q0 70 49.5 119t120.5 49q68 0 117 -49.5t49 -118.5q0 -70 -49 -120t-117 -50q-72 0 -121 50t-49 120zM121 -346l80 575q2 12 13 22.5t26 10.5h65q14 0 25.5 -10t13.5 -23l80 -571v-233q0 -16 -11.5 -27.5t-27.5 -11.5h-225q-16 0 -27.5 11t-11.5 28v229z" />
<glyph unicode="&#xa2;" horiz-adv-x="843" d="M39 410q0 90 36 168.5t96 137t139 91.5t165 33q16 0 31.5 -1t32.5 -3l22 84q4 16 17.5 23t29.5 3l25 -6q16 -4 23.5 -17.5t2.5 -29.5l-24 -86q41 -18 77 -47t66 -66q10 -14 8 -30.5t-18 -26.5l-94 -90q-14 -12 -27.5 -8t-23.5 14q-16 18 -45 37l-105 -387 q72 0 106.5 24.5t63.5 51.5q25 25 51 6l88 -76q35 -29 15 -57q-53 -82 -133 -127t-191 -45q-16 0 -30.5 1t-28.5 3l-54 -197q-4 -16 -17 -23.5t-30 -3.5l-22 7q-16 4 -24.5 16t-4.5 29l53 196q-59 23 -110 62t-88 91t-57.5 114.5t-20.5 134.5zM281 410q0 -59 25.5 -104.5 t68.5 -74.5l104 385q-84 -2 -141 -61t-57 -145z" />
<glyph unicode="&#xa3;" horiz-adv-x="993" d="M86 635v27q0 16 10 27t27 11h63q-16 70 -38.5 151t-22.5 169q0 102 34 183t93 136.5t138 85t169 29.5q72 0 128 -16.5t99 -40t74 -48t49 -40.5q12 -10 13.5 -25.5t-9.5 -28.5l-100 -120q-10 -16 -26.5 -16.5t-28.5 9.5q-33 25 -66 48q-29 16 -62.5 31.5t-68.5 15.5 q-72 0 -126 -51.5t-54 -141.5q0 -39 9 -80t21.5 -82t26 -84t21.5 -84h237q16 0 27.5 -11t11.5 -27v-29q0 -16 -11 -26.5t-28 -10.5h-217q10 -74 5 -174t-33 -195h401q16 0 26.5 -11t10.5 -28v-149q0 -16 -10.5 -27.5t-26.5 -11.5h-678q-16 0 -27.5 11.5t-11.5 27.5v37 q39 72 59.5 140.5t27.5 134t3 127t-14 118.5h-88q-16 0 -26.5 11t-10.5 28z" />
<glyph unicode="&#xa4;" horiz-adv-x="933" d="M106.5 439.5q-0.5 17.5 10.5 27.5l98 98q-25 55 -25 115.5t27 114.5l-98 98q-10 10 -10 27.5t10 27.5l82 80q10 10 27.5 10t27.5 -10l96 -96q53 27 114.5 26.5t115.5 -26.5l96 96q10 10 26.5 10t28.5 -10l80 -82q10 -10 11 -26.5t-9 -26.5l-96 -96q25 -55 25.5 -117 t-23.5 -117l96 -96q10 -10 10 -26.5t-10 -28.5l-82 -80q-10 -10 -26.5 -11.5t-26.5 9.5l-98 98q-55 -27 -116.5 -27t-117.5 27l-98 -98q-10 -10 -27.5 -10.5t-27.5 10.5l-80 82q-10 10 -10.5 27.5zM360 680q0 -45 30 -75t75 -30q47 0 76.5 30t29.5 75q0 47 -29.5 76.5 t-76.5 29.5q-45 0 -75 -29.5t-30 -76.5z" />
<glyph unicode="&#xa5;" horiz-adv-x="1296" d="M43 1414q10 20 35 20h211q10 0 19 -6.5t14 -12.5l327 -471l328 471q4 6 11 12.5t22 6.5h209q25 0 35 -19.5t-3 -40.5l-473 -682v-96h223q16 0 27.5 -11.5t11.5 -27.5v-29q0 -16 -11 -26t-28 -10h-223v-142h223q16 0 27.5 -11t11.5 -28v-28q0 -16 -11 -26.5t-28 -10.5 h-223v-207q0 -16 -11 -27.5t-28 -11.5h-188q-16 0 -27.5 11.5t-11.5 27.5v207h-227q-16 0 -26.5 11t-10.5 28v26q0 16 10 27.5t27 11.5h227v142h-227q-16 0 -26.5 11t-10.5 27v27q0 16 10 27.5t27 11.5h227v94l-467 684q-12 20 -2 40z" />
<glyph unicode="&#xa6;" horiz-adv-x="645" d="M270 100q0 16 11.5 27.5t27.5 11.5h27q16 0 26.5 -11t10.5 -28v-678q0 -16 -11.5 -26t-27.5 -10h-25q-16 0 -27.5 10t-11.5 26v678zM270 840v678q0 16 11.5 27t27.5 11h27q16 0 26.5 -11t10.5 -27v-678q0 -16 -11.5 -26.5t-27.5 -10.5h-25q-16 0 -27.5 10t-11.5 27z" />
<glyph unicode="&#xa7;" horiz-adv-x="1048" d="M71 -327.5q-5 14.5 11 38.5l63 109q12 20 31 26.5t41 -10.5q6 -2 34 -21.5t69.5 -41t92 -39t99.5 -17.5q31 0 62.5 8.5t56 26t40 43t15.5 62.5q0 45 -21.5 80.5t-57.5 64.5t-80 52.5t-87 41.5q-70 29 -135 67t-117.5 89t-84 115.5t-31.5 146.5q0 49 14 92t35.5 78 t47.5 61.5t50 47.5q-20 18 -46 45.5t-48.5 63.5t-37.5 81t-15 100q0 66 24.5 132.5t77.5 120t137 86t201 32.5q76 0 141.5 -16.5t115.5 -39t85 -44t49 -31.5q14 -8 19.5 -27.5t-4.5 -35.5l-84 -121q-25 -39 -68 -11q-10 6 -38 23.5t-64.5 35t-79.5 31t-82 13.5 q-88 0 -132 -42t-44 -89q0 -66 56 -117t175 -98q74 -29 147.5 -66t133 -88t96.5 -118.5t37 -157.5q0 -49 -15.5 -92.5t-38 -80t-49 -65.5t-47.5 -47l45 -45t49.5 -64.5t39 -85t16.5 -104.5q0 -76 -32 -144.5t-90 -120.5t-141 -84t-188 -32q-94 0 -167.5 19.5t-127 44 t-87.5 50t-46 38.5q-16 16 -21 30.5zM317 532q0 -47 21.5 -79.5t61.5 -60t95.5 -53.5t122.5 -56q23 16 41 39q16 20 28.5 50.5t12.5 73.5q0 41 -23.5 76t-64.5 64.5t-97 54.5t-124 45q-4 -4 -16.5 -15.5t-24.5 -30.5t-22.5 -46t-10.5 -62z" />
<glyph unicode="&#xa8;" horiz-adv-x="847" d="M100 1260q0 53 38 91t91 38t92 -38t39 -91t-39 -92.5t-92 -39.5t-91 39t-38 93zM512 1260q0 53 38 91t91 38t92 -38t39 -91t-39 -92.5t-92 -39.5t-91 39t-38 93z" />
<glyph unicode="&#xa9;" horiz-adv-x="1646" d="M86 717q0 152 57.5 286t157.5 234t234.5 158.5t285.5 58.5q152 0 286 -58.5t234.5 -158.5t159 -234.5t58.5 -285.5q0 -152 -58.5 -286t-159 -234.5t-234.5 -157.5t-286 -57t-286 57t-234 157.5t-157.5 234.5t-57.5 286zM246 717q0 -119 45 -223.5t124 -183.5t183 -124 t223 -45t224.5 45t183.5 124t123 183.5t45 223.5t-45 224.5t-123 183t-183.5 122.5t-224.5 45t-223 -45t-183 -122.5t-124 -183t-45 -224.5zM457 713q0 80 29.5 150.5t82 122.5t122 82t149.5 30q61 0 119.5 -18.5t109.5 -59.5q14 -12 15 -28.5t-11 -30.5l-69 -78 q-10 -12 -24.5 -12.5t-27.5 8.5q-27 18 -54.5 25t-55.5 7q-41 0 -76 -15t-59.5 -42t-39 -61.5t-14.5 -73.5q0 -82 53.5 -137.5t135.5 -55.5q57 0 108 33q12 10 26.5 8t24.5 -12l74 -82q10 -12 10 -28.5t-12 -28.5q-53 -47 -110.5 -66.5t-122.5 -19.5q-80 0 -149.5 29.5 t-122 82t-82 122t-29.5 149.5z" />
<glyph unicode="&#xaa;" horiz-adv-x="636" d="M43 1024q0 82 62.5 137.5t179.5 55.5q23 0 43 -2.5t37 -6.5q18 -4 30 -8q0 57 -16.5 84t-69.5 27q-41 0 -87 -9.5t-72 -15.5q-29 -6 -35 31l-13 67q-6 29 19 39q4 2 23.5 7.5t48 10.5t63.5 9t72 4q68 0 112.5 -16.5t71.5 -50t38 -83t11 -114.5v-330q0 -12 -9 -20.5 t-20 -8.5h-55q-18 0 -28 21q-4 10 -8.5 21.5t-8.5 21.5q-29 -27 -70.5 -53.5t-113.5 -26.5q-90 0 -147.5 56.5t-57.5 152.5zM211 1026q0 -35 21.5 -57.5t56.5 -22.5t64.5 22.5t39.5 49.5v67q-10 10 -38.5 16.5t-53.5 6.5q-39 0 -64.5 -23.5t-25.5 -58.5z" />
<glyph unicode="&#xab;" horiz-adv-x="964" d="M45 422.5q2 13.5 8 23.5l223 304q4 8 14.5 16t22.5 8h117q27 0 35 -19.5t-4 -43.5l-139 -285l133 -301q10 -25 3 -43.5t-34 -18.5h-127q-18 0 -31 17l-213 317q-10 12 -8 25.5zM455 422.5q2 13.5 8 23.5l223 304q4 8 14.5 16t22.5 8h117q27 0 35 -19.5t-5 -43.5 l-139 -285l133 -301q10 -25 3 -43.5t-33 -18.5h-127q-18 0 -31 17l-213 317q-10 12 -8 25.5z" />
<glyph unicode="&#xac;" horiz-adv-x="1032" d="M47 653v115q0 16 11.5 27.5t27.5 11.5h805q16 0 27.5 -12.5t11.5 -26.5v-463q0 -16 -11.5 -26.5t-27.5 -10.5h-115q-16 0 -27.5 10.5t-11.5 26.5v309h-651q-16 0 -27.5 11.5t-11.5 27.5z" />
<glyph unicode="&#xad;" horiz-adv-x="710" d="M88 430v137q0 39 39 39h457q39 0 39 -39v-137q0 -16 -11.5 -26.5t-27.5 -10.5h-457q-16 0 -27.5 10.5t-11.5 26.5z" />
<glyph unicode="&#xae;" horiz-adv-x="1646" d="M86 717q0 152 57.5 286t157.5 234t234.5 158.5t285.5 58.5q152 0 286 -58.5t234.5 -158.5t159 -234.5t58.5 -285.5q0 -152 -58.5 -286t-159 -234.5t-234.5 -157.5t-286 -57t-286 57t-234 157.5t-157.5 234.5t-57.5 286zM246 717q0 -119 45 -223.5t124 -183.5t183 -124 t223 -45t224.5 45t183.5 124t123 183.5t45 223.5t-45 224.5t-123 183t-183.5 122.5t-224.5 45t-223 -45t-183 -122.5t-124 -183t-45 -224.5zM547 383v672q0 16 11 27.5t28 11.5h317q47 0 92 -17.5t81 -50.5t57.5 -80t21.5 -106q0 -51 -13.5 -88t-35 -65t-47 -45t-49.5 -30 l94 -213q10 -23 -1 -39t-34 -16h-111q-12 0 -22 9t-14 20l-91 229h-106v-219q0 -16 -11.5 -27.5t-27.5 -11.5h-100q-16 0 -27.5 11.5t-11.5 27.5zM719 754h162q37 0 60.5 24.5t23.5 59.5q0 37 -23.5 60.5t-60.5 23.5h-162v-168z" />
<glyph unicode="&#xaf;" horiz-adv-x="847" d="M123 1204v70q0 39 39 39h524q39 0 39 -39v-70q0 -16 -11.5 -26.5t-27.5 -10.5h-524q-16 0 -27.5 10.5t-11.5 26.5z" />
<glyph unicode="&#xb0;" horiz-adv-x="634" d="M41 1178q0 57 21.5 107t59.5 88t88 59.5t107 21.5t107.5 -21.5t88.5 -59.5t59.5 -88t21.5 -107t-21.5 -107.5t-59.5 -88.5t-88.5 -59.5t-107.5 -21.5t-107 21.5t-88 59.5t-59.5 88t-21.5 108zM213 1178q0 -41 31.5 -73t72.5 -32t71 32t30 73t-30 70.5t-71 29.5 t-72.5 -29.5t-31.5 -70.5z" />
<glyph unicode="&#xb1;" horiz-adv-x="1146" d="M131 135v115q0 16 11.5 27.5t27.5 11.5h807q16 0 26.5 -11.5t10.5 -27.5v-115q0 -16 -10.5 -27.5t-26.5 -11.5h-807q-16 0 -27.5 11.5t-11.5 27.5zM131 782v115q0 16 11.5 27.5t27.5 11.5h307v303q0 16 11.5 26.5t27.5 10.5h115q16 0 27.5 -10.5t11.5 -26.5v-303h307 q16 0 26.5 -11.5t10.5 -27.5v-115q0 -16 -10.5 -27.5t-26.5 -11.5h-307v-211q0 -16 -11.5 -26t-27.5 -10h-115q-16 0 -27.5 10t-11.5 26v211h-307q-16 0 -27.5 11.5t-11.5 27.5z" />
<glyph unicode="&#xb2;" horiz-adv-x="567" d="M55 1051v34l226 258q51 57 51 103q0 31 -22.5 51.5t-59.5 20.5q-29 0 -53.5 -13.5t-36.5 -27.5q-18 -12 -33 6l-45 63q-10 12 -10 21.5t16 21.5q4 4 20.5 15.5t41 23.5t57.5 21.5t74 9.5q98 0 157.5 -51.5t59.5 -137.5q0 -47 -20.5 -90t-55.5 -86l-111 -131h164 q18 0 19 -18v-94q0 -18 -19 -19h-399q-20 0 -21 19z" />
<glyph unicode="&#xb3;" horiz-adv-x="542" d="M53 1116l45 60q12 18 35 4q2 0 28.5 -16.5t67.5 -16.5t63.5 17.5t22.5 45.5q0 29 -24.5 48.5t-71.5 19.5h-59q-31 0 -31 29v63q0 29 31 29h59q39 0 61.5 17.5t22.5 45.5q0 29 -21.5 45.5t-56.5 16.5q-23 0 -44 -10.5t-36 -22.5q-10 -4 -15 -5t-15 11l-49 59 q-8 8 -8.5 19.5t10.5 17.5q20 18 47 33q23 12 57.5 22.5t77.5 10.5q98 0 159.5 -46t61.5 -124q0 -55 -35 -91t-69 -52v-3q18 -6 39.5 -19t40 -31.5t30.5 -45t12 -59.5q0 -86 -70.5 -131t-168.5 -45q-88 0 -134 27.5t-61 39.5q-16 16 -2 37z" />
<glyph unicode="&#xb4;" horiz-adv-x="618" d="M92 1189.5q4 10.5 14 16.5l334 199q14 10 29.5 9t24.5 -15l59 -105q10 -20 5 -34.5t-17 -20.5l-359 -158q-23 -10 -34 -6t-19 19l-35 73q-6 12 -2 22.5z" />
<glyph unicode="&#xb5;" horiz-adv-x="1073" d="M125 -575v1355q0 16 11 27.5t28 11.5h168q16 0 27.5 -11t11.5 -28v-407q4 -76 43 -118t106 -42q66 0 110 49t54 105v413q0 23 10.5 31t34.5 8h156q16 0 27.5 -11t11.5 -28v-741q0 -16 -11.5 -27.5t-27.5 -11.5h-76q-16 0 -25.5 9t-13.5 22l-25 67q-14 -12 -35.5 -32.5 t-54 -39t-78 -32.5t-106.5 -14q-55 0 -100 12v-567q0 -16 -11.5 -27.5t-27.5 -11.5h-168q-16 0 -27.5 11t-11.5 28z" />
<glyph unicode="&#xb6;" horiz-adv-x="1435" d="M39 1006q0 88 30.5 165.5t84 136t126 92.5t156.5 34l934 -2q16 0 27.5 -11.5t11.5 -27.5v-95q0 -16 -11.5 -27t-27.5 -11h-160v-1835q0 -16 -11 -27.5t-28 -11.5h-110q-16 0 -27.5 11t-11.5 28v1835h-279v-1835q0 -16 -11 -27.5t-27 -11.5h-111q-16 0 -27.5 11t-11.5 28 v1150h-90q-86 0 -164 33t-136.5 91.5t-92 137t-33.5 169.5z" />
<glyph unicode="&#xb7;" horiz-adv-x="528" d="M80 524q0 39 14.5 74t40 60.5t58 40t69.5 14.5q39 0 74 -14.5t60.5 -40t40 -60.5t14.5 -74q0 -37 -14.5 -69.5t-40 -58t-60.5 -40t-74 -14.5q-37 0 -69.5 14.5t-58 40t-40 58t-14.5 69.5z" />
<glyph unicode="&#xb8;" horiz-adv-x="505" d="M61.5 -431.5q1.5 15.5 16.5 28.5l41 34q10 10 22.5 9.5t20.5 -11.5q12 -14 29.5 -19t31.5 -5q31 0 51.5 22.5t20.5 53.5q0 37 -35 65.5t-115 34.5q-23 4 -28.5 16.5t-5.5 20.5v182h135v-106q94 -12 146 -68.5t52 -142.5q0 -45 -17 -84t-46 -69t-69 -46t-85 -16 q-47 0 -88 20t-67 51q-12 14 -10.5 29.5z" />
<glyph unicode="&#xb9;" horiz-adv-x="401" d="M27 1520q0 10 14 22l152 96h104q18 0 18 -18v-569q0 -18 -18 -19h-127q-20 0 -20 19v395l-101 -8q-18 0 -18 18z" />
<glyph unicode="&#xba;" horiz-adv-x="618" d="M51 1130q0 154 65.5 239t194.5 85q127 0 191.5 -85t64.5 -239q0 -152 -64.5 -237.5t-191.5 -85.5q-129 0 -194.5 86t-65.5 237zM221 1130q0 -180 90 -180q41 0 65.5 46t24.5 134t-24.5 134.5t-65.5 46.5q-90 0 -90 -181z" />
<glyph unicode="&#xbb;" horiz-adv-x="964" d="M88 755q8 19 35 19h117q12 0 22 -8t14 -16l224 -304q6 -10 8 -23t-8 -26l-213 -317q-12 -16 -31 -17h-127q-27 0 -34 18.5t3 43.5l133 301l-139 285q-12 25 -4 44zM498 755q8 19 34 19h117q12 0 22.5 -8t14.5 -16l223 -304q6 -10 8.5 -23t-8.5 -26l-213 -317 q-12 -16 -30 -17h-127q-27 0 -34 18.5t3 43.5l133 301l-139 285q-12 25 -4 44z" />
<glyph unicode="&#xbc;" horiz-adv-x="1359" d="M43 1315q0 10 14 22l152 97h104q18 0 19 -19v-569q0 -18 -19 -19h-127q-20 0 -20 19v395l-100 -8q-18 0 -19 18zM182 55l703 1358q10 20 35 21h102q23 0 34 -17.5t1 -38.5l-707 -1358q-4 -6 -13 -13t-22 -7h-98q-23 0 -34 17.5t-1 37.5zM719 133v105l334 362q6 6 16 6h84 q18 0 18 -18v-348h82q18 0 19 -17v-88q0 -18 -19 -18h-82v-99q0 -18 -18 -18h-115q-20 0 -20 18v99h-281q-18 0 -18 16zM868 238h152v170z" />
<glyph unicode="&#xbd;" horiz-adv-x="1353" d="M43 1315q0 10 14 22l152 97h104q18 0 19 -19v-569q0 -18 -19 -19h-127q-20 0 -20 19v395l-100 -8q-18 0 -19 18zM182 55l703 1358q10 20 35 21h102q23 0 34 -17.5t1 -38.5l-707 -1358q-4 -6 -13 -13t-22 -7h-98q-23 0 -34 17.5t-1 37.5zM801 18v35l225 258q51 57 51 103 q0 31 -22.5 51t-59.5 20q-29 0 -53 -13t-37 -28q-18 -12 -33 7l-45 63q-10 12 -10 21.5t17 21.5q4 4 20 15.5t41 23.5t57.5 21.5t73.5 9.5q98 0 157.5 -51.5t59.5 -137.5q0 -47 -20.5 -90t-55.5 -86l-110 -131h164q18 0 18 -18v-95q0 -18 -18 -18h-400q-20 0 -20 18z" />
<glyph unicode="&#xbe;" horiz-adv-x="1435" d="M66 911l45 60q12 18 34 4q2 0 29 -16.5t68 -16.5t63.5 17.5t22.5 46.5t-24.5 48t-72.5 19h-59q-31 0 -31 29v63q0 29 31 29h59q39 0 61.5 17.5t22.5 45.5q0 29 -21.5 45.5t-55.5 16.5q-23 0 -44.5 -10.5t-35.5 -22.5q-10 -4 -15.5 -5t-15.5 11l-49 60q-8 8 -8 19t10 18 q20 18 47 32q23 12 57.5 22.5t77.5 10.5q98 0 159.5 -46t61.5 -124q0 -55 -34.5 -91t-69.5 -52v-2q18 -6 39.5 -19.5t40 -32t31 -45t12.5 -59.5q0 -86 -71 -131t-169 -45q-88 0 -134 27.5t-60 39.5q-16 16 -2 37zM258 55l703 1358q10 20 34 21h103q23 0 34 -17.5t1 -38.5 l-707 -1358q-4 -6 -13.5 -13t-21.5 -7h-98q-23 0 -34 17.5t-1 37.5zM795 133v105l333 362q6 6 17 6h84q18 0 18 -18v-348h82q18 0 19 -17v-88q0 -18 -19 -18h-82v-99q0 -18 -18 -18h-115q-20 0 -20 18v99h-281q-18 0 -18 16zM944 238h152v170z" />
<glyph unicode="&#xbf;" horiz-adv-x="888" d="M39 -291q0 61 23.5 109.5t57.5 87.5t75 70.5t74.5 60.5t57 56.5t23.5 58.5v67q0 18 10.5 30.5t30.5 12.5h166q16 0 27.5 -11t11.5 -28v-86q0 -74 -44 -127t-98.5 -98t-98.5 -89t-44 -97q0 -55 43 -96.5t121 -41.5q47 0 82 13.5t60.5 31t44 35t34.5 27.5q25 16 45 -2 l97 -94q12 -10 11 -26.5t-11 -27.5q-43 -51 -103 -90q-51 -35 -125.5 -62.5t-173.5 -27.5q-80 0 -152.5 25.5t-127 71.5t-86 108.5t-31.5 138.5zM305 672q0 70 50.5 119t119.5 49q70 0 119 -49.5t49 -118.5q0 -70 -49 -120t-119 -50t-120 50t-50 120z" />
<glyph unicode="&#xc0;" d="M0 53l637 1379q10 23 35 22h20q16 0 23.5 -6t11.5 -16l631 -1379q10 -20 -1 -36.5t-34 -16.5h-178q-23 0 -36 9t-24 32l-100 221h-612l-101 -221q-6 -16 -20 -28.5t-39 -12.5h-178q-23 0 -34 16.5t-1 36.5zM446.5 1752q-4.5 15 6.5 34l57 106q8 14 24.5 14.5t28.5 -8.5 l336 -200q8 -4 13.5 -15.5t-1.5 -23.5l-37 -72q-6 -14 -17 -19t-34 5l-358 158q-14 6 -18.5 21zM473 489h412l-205 451h-6z" />
<glyph unicode="&#xc1;" d="M0 53l637 1379q10 23 35 22h20q16 0 23.5 -6t11.5 -16l631 -1379q10 -20 -1 -36.5t-34 -16.5h-178q-23 0 -36 9t-24 32l-100 221h-612l-101 -221q-6 -16 -20 -28.5t-39 -12.5h-178q-23 0 -34 16.5t-1 36.5zM445.5 1682.5q5.5 11.5 13.5 15.5l336 200q37 23 53 -6l57 -106 q10 -18 6 -33.5t-18 -21.5l-358 -158q-23 -10 -34.5 -5t-17.5 19l-37 72q-6 12 -0.5 23.5zM473 489h412l-205 451h-6z" />
<glyph unicode="&#xc2;" d="M0 53l637 1379q10 23 35 22h20q16 0 23.5 -6t11.5 -16l631 -1379q10 -20 -1 -36.5t-34 -16.5h-178q-23 0 -36 9t-24 32l-100 221h-612l-101 -221q-6 -16 -20 -28.5t-39 -12.5h-178q-23 0 -34 16.5t-1 36.5zM376 1672q5 11 15 18l266 206q20 16 43 0l267 -206 q10 -6 15 -17.5t-3 -21.5l-53 -76q-10 -12 -19.5 -14t-27.5 8l-199 125l-201 -125q-18 -10 -27.5 -8t-19.5 14l-53 76q-8 10 -3 21zM473 489h412l-205 451h-6z" />
<glyph unicode="&#xc3;" d="M0 53l637 1379q10 23 35 22h20q16 0 23.5 -6t11.5 -16l631 -1379q10 -20 -1 -36.5t-34 -16.5h-178q-23 0 -36 9t-24 32l-100 221h-612l-101 -221q-6 -16 -20 -28.5t-39 -12.5h-178q-23 0 -34 16.5t-1 36.5zM359.5 1681.5q-3.5 14.5 0.5 24.5q8 14 24.5 43t43.5 57.5 t62.5 50t82.5 21.5q39 0 68 -17.5t52.5 -39t47 -39t52.5 -17.5q27 0 43 19.5t28.5 39t25.5 31t36 -5.5l57 -41q14 -10 13 -27.5t-11 -35.5q-8 -14 -23.5 -41t-40 -52.5t-58.5 -44t-77 -18.5q-41 0 -70.5 17.5t-55 39t-49 40t-48.5 18.5q-29 0 -43 -19.5t-26.5 -39 t-25.5 -31.5t-36 2l-59 43q-10 8 -13.5 22.5zM473 489h412l-205 451h-6z" />
<glyph unicode="&#xc4;" d="M0 53l637 1379q10 23 35 22h20q16 0 23.5 -6t11.5 -16l631 -1379q10 -20 -1 -36.5t-34 -16.5h-178q-23 0 -36 9t-24 32l-100 221h-612l-101 -221q-6 -16 -20 -28.5t-39 -12.5h-178q-23 0 -34 16.5t-1 36.5zM295 1718q0 53 38 91t91 38t92 -37.5t39 -91.5q0 -53 -39 -92 t-92 -39t-91 39t-38 92zM473 489h412l-205 451h-6zM801 1718q0 53 38 91t91 38t92 -37.5t39 -91.5q0 -53 -39 -92t-92 -39t-91 39t-38 92z" />
<glyph unicode="&#xc5;" d="M0 53l637 1379q10 23 35 22h20q16 0 23.5 -6t11.5 -16l631 -1379q10 -20 -1 -36.5t-34 -16.5h-178q-23 0 -36 9t-24 32l-100 221h-612l-101 -221q-6 -16 -20 -28.5t-39 -12.5h-178q-23 0 -34 16.5t-1 36.5zM446 1776q0 49 18.5 91t49.5 72.5t73 49t91 18.5q47 0 89 -18.5 t73.5 -49t50 -72.5t18.5 -91t-18.5 -91.5t-50 -73t-73.5 -49t-89 -18.5q-49 0 -91 18.5t-73 49t-49.5 72.5t-18.5 92zM473 489h412l-205 451h-6zM575 1776q0 -41 31 -72t72 -31t69.5 31t28.5 72t-28.5 69.5t-69.5 28.5t-72 -28.5t-31 -69.5z" />
<glyph unicode="&#xc6;" horiz-adv-x="1843" d="M-28 16.5q-7 16.5 5 36.5l822 1317q20 31 34.5 47.5t55.5 16.5h809q16 0 27.5 -11.5t11.5 -27.5v-168q0 -16 -11.5 -27.5t-27.5 -11.5h-613v-336h512q16 0 27.5 -11.5t11.5 -27.5v-170q0 -16 -11 -27.5t-28 -11.5h-512v-358h613q16 0 27.5 -11.5t11.5 -27.5v-168 q0 -16 -11.5 -27.5t-27.5 -11.5h-836q-16 0 -27.5 11.5t-11.5 27.5v223h-430l-145 -231q-10 -14 -21.5 -22.5t-29.5 -8.5h-195q-23 0 -30 16.5zM537 489h286v463z" />
<glyph unicode="&#xc7;" horiz-adv-x="1404" d="M84 715q0 154 58.5 289t157.5 234t234.5 157.5t288.5 58.5q156 0 273.5 -48t222.5 -142q31 -29 2 -58l-125 -129q-25 -27 -51 0q-66 57 -148 89t-168 32q-98 0 -182 -38t-144.5 -103.5t-95 -152.5t-34.5 -183t34.5 -182t96 -150.5t145.5 -102.5t182 -38q92 0 170 31.5 t144 85.5q12 10 26.5 10t24.5 -10l127 -132q12 -10 10 -27.5t-12 -27.5q-104 -102 -231 -149t-263 -49v-86q94 -12 146.5 -68.5t52.5 -142.5q0 -45 -17.5 -84t-46 -69t-68.5 -46t-85 -16q-47 0 -88 20t-68 51q-12 14 -10 29.5t16 28.5l41 34q10 10 22.5 9.5t20.5 -11.5 q12 -14 30 -19t32 -5q31 0 51.5 22.5t20.5 53.5q0 37 -35 65.5t-115 34.5q-23 4 -29 16.5t-6 20.5v174q-129 23 -240.5 87t-193.5 159.5t-128 217.5t-46 259z" />
<glyph unicode="&#xc8;" horiz-adv-x="1204" d="M186 39v1356q0 16 11.5 27.5t27.5 11.5h834q16 0 27.5 -11.5t11.5 -27.5v-168q0 -16 -11.5 -27.5t-27.5 -11.5h-606v-336h505q16 0 27.5 -11.5t11.5 -27.5v-170q0 -16 -11 -27.5t-28 -11.5h-505v-358h606q16 0 27.5 -11.5t11.5 -27.5v-168q0 -16 -11.5 -27.5t-27.5 -11.5 h-834q-16 0 -27.5 11.5t-11.5 27.5zM422 1752q-4 15 6 34l57 106q8 14 24.5 14.5t29.5 -8.5l335 -200q8 -4 13.5 -15.5t-0.5 -23.5l-37 -72q-6 -14 -17.5 -19t-33.5 5l-359 158q-14 6 -18 21z" />
<glyph unicode="&#xc9;" horiz-adv-x="1204" d="M186 39v1356q0 16 11.5 27.5t27.5 11.5h834q16 0 27.5 -11.5t11.5 -27.5v-168q0 -16 -11.5 -27.5t-27.5 -11.5h-606v-336h505q16 0 27.5 -11.5t11.5 -27.5v-170q0 -16 -11 -27.5t-28 -11.5h-505v-358h606q16 0 27.5 -11.5t11.5 -27.5v-168q0 -16 -11.5 -27.5t-27.5 -11.5 h-834q-16 0 -27.5 11.5t-11.5 27.5zM423 1682.5q5 11.5 13 15.5l336 200q37 23 53 -6l58 -106q10 -18 6 -33.5t-19 -21.5l-358 -158q-23 -10 -34 -5t-17 19l-37 72q-6 12 -1 23.5z" />
<glyph unicode="&#xca;" horiz-adv-x="1204" d="M186 39v1356q0 16 11.5 27.5t27.5 11.5h834q16 0 27.5 -11.5t11.5 -27.5v-168q0 -16 -11.5 -27.5t-27.5 -11.5h-606v-336h505q16 0 27.5 -11.5t11.5 -27.5v-170q0 -16 -11 -27.5t-28 -11.5h-505v-358h606q16 0 27.5 -11.5t11.5 -27.5v-168q0 -16 -11.5 -27.5t-27.5 -11.5 h-834q-16 0 -27.5 11.5t-11.5 27.5zM341 1672q5 11 15 18l267 206q20 16 43 0l266 -206q10 -6 15 -17.5t-3 -21.5l-53 -76q-10 -12 -19.5 -14t-27.5 8l-199 125l-201 -125q-18 -10 -27 -8t-20 14l-53 76q-8 10 -3 21z" />
<glyph unicode="&#xcb;" horiz-adv-x="1204" d="M186 39v1356q0 16 11.5 27.5t27.5 11.5h834q16 0 27.5 -11.5t11.5 -27.5v-168q0 -16 -11.5 -27.5t-27.5 -11.5h-606v-336h505q16 0 27.5 -11.5t11.5 -27.5v-170q0 -16 -11 -27.5t-28 -11.5h-505v-358h606q16 0 27.5 -11.5t11.5 -27.5v-168q0 -16 -11.5 -27.5t-27.5 -11.5 h-834q-16 0 -27.5 11.5t-11.5 27.5zM270 1718q0 53 38 91t91 38t92 -37.5t39 -91.5q0 -53 -39 -92t-92 -39t-91 39t-38 92zM776 1718q0 53 38 91t91 38t92 -37.5t39 -91.5q0 -53 -39 -92t-92 -39t-91 39t-38 92z" />
<glyph unicode="&#xcc;" horiz-adv-x="641" d="M86 1752q-4 15 6 34l58 106q8 14 24 14.5t29 -8.5l336 -200q8 -4 13 -15.5t-1 -23.5l-37 -72q-6 -14 -17.5 -19t-33.5 5l-359 158q-14 6 -18 21zM186 39v1356q0 16 11.5 27.5t27.5 11.5h191q16 0 27.5 -11.5t11.5 -27.5v-1356q0 -16 -11.5 -27.5t-27.5 -11.5h-191 q-16 0 -27.5 11.5t-11.5 27.5z" />
<glyph unicode="&#xcd;" horiz-adv-x="641" d="M87 1682.5q5 11.5 13 15.5l336 200q37 23 53 -6l58 -106q10 -18 6 -33.5t-18 -21.5l-359 -158q-23 -10 -34 -5t-17 19l-37 72q-6 12 -1 23.5zM186 39v1356q0 16 11.5 27.5t27.5 11.5h191q16 0 27.5 -11.5t11.5 -27.5v-1356q0 -16 -11.5 -27.5t-27.5 -11.5h-191 q-16 0 -27.5 11.5t-11.5 27.5z" />
<glyph unicode="&#xce;" horiz-adv-x="641" d="M13 1672q5 11 16 18l266 206q20 16 43 0l266 -206q10 -6 15.5 -17.5t-3.5 -21.5l-53 -76q-10 -12 -19 -14t-28 8l-199 125l-200 -125q-18 -10 -27.5 -8t-19.5 14l-54 76q-8 10 -3 21zM186 39v1356q0 16 11.5 27.5t27.5 11.5h191q16 0 27.5 -11.5t11.5 -27.5v-1356 q0 -16 -11.5 -27.5t-27.5 -11.5h-191q-16 0 -27.5 11.5t-11.5 27.5z" />
<glyph unicode="&#xcf;" horiz-adv-x="641" d="M-63 1718q0 53 37.5 91t91.5 38q53 0 92 -37.5t39 -91.5q0 -53 -39 -92t-92 -39t-91 39t-38 92zM186 39v1356q0 16 11.5 27.5t27.5 11.5h191q16 0 27.5 -11.5t11.5 -27.5v-1356q0 -16 -11.5 -27.5t-27.5 -11.5h-191q-16 0 -27.5 11.5t-11.5 27.5zM442 1718q0 53 38 91 t91 38t92 -37.5t39 -91.5q0 -53 -39 -92t-92 -39t-91 39t-38 92z" />
<glyph unicode="&#xd0;" horiz-adv-x="1521" d="M100 696v27q0 16 10.5 27.5t26.5 11.5h60v633q0 16 10 27.5t26 11.5h486q147 0 278 -56.5t229.5 -154t155 -227.5t56.5 -277q0 -150 -56.5 -281t-155 -228t-229.5 -153.5t-278 -56.5h-486q-16 0 -26 11.5t-10 27.5v618h-60q-16 0 -26.5 11.5t-10.5 27.5zM461 250h233 q100 0 184.5 36t145.5 98t96 148t35 187q0 100 -35 185t-96 147.5t-145 98.5t-185 36h-233v-424h338q16 0 27.5 -11.5t11.5 -27.5v-29q0 -16 -11.5 -26.5t-27.5 -10.5h-338v-407z" />
<glyph unicode="&#xd1;" horiz-adv-x="1583" d="M186 39v1378q0 16 11.5 26.5t27.5 10.5h51l852 -905h2v846q0 16 11.5 27.5t27.5 11.5h189q16 0 27.5 -11.5t11.5 -27.5v-1379q0 -16 -11.5 -26t-27.5 -10h-49l-856 940h-2v-881q0 -16 -11.5 -27.5t-27.5 -11.5h-187q-16 0 -27.5 11.5t-11.5 27.5zM472 1681.5 q-3 14.5 1 24.5q8 14 24.5 43t43 57.5t62.5 50t83 21.5q39 0 67.5 -17.5t52 -39t47.5 -39t52 -17.5q27 0 43.5 19.5t28.5 39t25.5 31t35.5 -5.5l58 -41q14 -10 13 -27.5t-11 -35.5q-8 -14 -23.5 -41t-40 -52.5t-58.5 -44t-77 -18.5q-41 0 -70.5 17.5t-55 39t-49.5 40 t-48 18.5q-29 0 -43.5 -19.5t-26.5 -39t-25.5 -31.5t-35.5 2l-60 43q-10 8 -13 22.5z" />
<glyph unicode="&#xd2;" horiz-adv-x="1638" d="M84 715q0 154 57.5 289t156.5 234t233.5 157.5t287.5 58.5q154 0 288 -58.5t234.5 -157.5t157.5 -234.5t57 -288.5q0 -154 -57 -288t-157.5 -233.5t-234.5 -156.5t-288 -57t-288 57t-233 156.5t-156.5 233.5t-57.5 288zM350 715q0 -96 37 -182.5t100.5 -150t149.5 -100 t182 -36.5t182 36.5t151 100t101.5 149.5t36.5 183q0 96 -36.5 182t-101.5 150.5t-151 102.5t-182 38t-182 -38t-149.5 -102.5t-100.5 -150.5t-37 -182zM592 1752q-4 15 6 34l57 106q8 14 24.5 14.5t29.5 -8.5l335 -200q8 -4 13.5 -15.5t-0.5 -23.5l-37 -72 q-6 -14 -17.5 -19t-33.5 5l-359 158q-14 6 -18 21z" />
<glyph unicode="&#xd3;" horiz-adv-x="1638" d="M84 715q0 154 57.5 289t156.5 234t233.5 157.5t287.5 58.5q154 0 288 -58.5t234.5 -157.5t157.5 -234.5t57 -288.5q0 -154 -57 -288t-157.5 -233.5t-234.5 -156.5t-288 -57t-288 57t-233 156.5t-156.5 233.5t-57.5 288zM350 715q0 -96 37 -182.5t100.5 -150t149.5 -100 t182 -36.5t182 36.5t151 100t101.5 149.5t36.5 183q0 96 -36.5 182t-101.5 150.5t-151 102.5t-182 38t-182 -38t-149.5 -102.5t-100.5 -150.5t-37 -182zM589 1682.5q5 11.5 13 15.5l336 200q37 23 53 -6l58 -106q10 -18 6 -33.5t-19 -21.5l-358 -158q-23 -10 -34 -5t-17 19 l-37 72q-6 12 -1 23.5z" />
<glyph unicode="&#xd4;" horiz-adv-x="1638" d="M84 715q0 154 57.5 289t156.5 234t233.5 157.5t287.5 58.5q154 0 288 -58.5t234.5 -157.5t157.5 -234.5t57 -288.5q0 -154 -57 -288t-157.5 -233.5t-234.5 -156.5t-288 -57t-288 57t-233 156.5t-156.5 233.5t-57.5 288zM350 715q0 -96 37 -182.5t100.5 -150t149.5 -100 t182 -36.5t182 36.5t151 100t101.5 149.5t36.5 183q0 96 -36.5 182t-101.5 150.5t-151 102.5t-182 38t-182 -38t-149.5 -102.5t-100.5 -150.5t-37 -182zM515 1672q5 11 15 18l267 206q20 16 43 0l266 -206q10 -6 15 -17.5t-3 -21.5l-53 -76q-10 -12 -19.5 -14t-27.5 8 l-199 125l-201 -125q-18 -10 -27 -8t-20 14l-53 76q-8 10 -3 21z" />
<glyph unicode="&#xd5;" horiz-adv-x="1638" d="M84 715q0 154 57.5 289t156.5 234t233.5 157.5t287.5 58.5q154 0 288 -58.5t234.5 -157.5t157.5 -234.5t57 -288.5q0 -154 -57 -288t-157.5 -233.5t-234.5 -156.5t-288 -57t-288 57t-233 156.5t-156.5 233.5t-57.5 288zM350 715q0 -96 37 -182.5t100.5 -150t149.5 -100 t182 -36.5t182 36.5t151 100t101.5 149.5t36.5 183q0 96 -36.5 182t-101.5 150.5t-151 102.5t-182 38t-182 -38t-149.5 -102.5t-100.5 -150.5t-37 -182zM503 1681.5q-3 14.5 1 24.5q8 14 24.5 43t43 57.5t62.5 50t83 21.5q39 0 67.5 -17.5t52 -39t47 -39t52.5 -17.5 q27 0 43 19.5t28.5 39t26 31t35.5 -5.5l57 -41q14 -10 13.5 -27.5t-11.5 -35.5q-8 -14 -23 -41t-40 -52.5t-58.5 -44t-76.5 -18.5q-41 0 -71 17.5t-55.5 39t-49 40t-47.5 18.5q-29 0 -43.5 -19.5t-26.5 -39t-25.5 -31.5t-36.5 2l-59 43q-10 8 -13 22.5z" />
<glyph unicode="&#xd6;" horiz-adv-x="1638" d="M84 715q0 154 57.5 289t156.5 234t233.5 157.5t287.5 58.5q154 0 288 -58.5t234.5 -157.5t157.5 -234.5t57 -288.5q0 -154 -57 -288t-157.5 -233.5t-234.5 -156.5t-288 -57t-288 57t-233 156.5t-156.5 233.5t-57.5 288zM350 715q0 -96 37 -182.5t100.5 -150t149.5 -100 t182 -36.5t182 36.5t151 100t101.5 149.5t36.5 183q0 96 -36.5 182t-101.5 150.5t-151 102.5t-182 38t-182 -38t-149.5 -102.5t-100.5 -150.5t-37 -182zM436 1718q0 53 38 91t91 38t92 -37.5t39 -91.5q0 -53 -39 -92t-92 -39t-91 39t-38 92zM942 1718q0 53 38 91t91 38 t92 -37.5t39 -91.5q0 -53 -39 -92t-92 -39t-91 39t-38 92z" />
<glyph unicode="&#xd7;" horiz-adv-x="950" d="M113 466.5q0 16.5 10 27.5l217 217l-217 217q-10 10 -10 27.5t10 27.5l80 82q10 10 27.5 10t27.5 -10l217 -217l217 219q10 10 26.5 9t26.5 -11l82 -82q10 -10 11.5 -26.5t-9.5 -26.5l-217 -219l217 -217q10 -12 9.5 -28.5t-11.5 -27.5l-82 -80q-10 -10 -26.5 -11 t-26.5 9l-217 219l-217 -217q-10 -10 -26.5 -10t-26.5 10l-82 82q-10 10 -10 26.5z" />
<glyph unicode="&#xd8;" horiz-adv-x="1636" d="M84 715q0 154 57.5 289t156.5 234t233.5 157.5t287.5 58.5q139 0 262 -48t222 -132l139 137q10 10 26.5 10t26.5 -10l21 -20q25 -25 0 -54l-140 -139q84 -98 132 -220t48 -261q0 -154 -57 -288t-157.5 -234.5t-234.5 -157.5t-288 -57q-141 0 -264 46t-219 132l-133 -133 q-10 -10 -26.5 -9.5t-26.5 11.5l-21 20q-10 10 -11 26.5t9 26.5l133 131q-84 98 -130 220t-46 264zM350 715q0 -84 28 -158t75 -133l661 659q-61 47 -136 76t-159 29q-96 0 -182 -38t-149.5 -102.5t-100.5 -150.5t-37 -182zM526 348q59 -47 134 -74.5t159 -27.5 q96 0 182 36.5t151 101.5t101.5 151t36.5 182q0 84 -27.5 157.5t-76.5 133.5z" />
<glyph unicode="&#xd9;" horiz-adv-x="1476" d="M168 543v852q0 16 11 27.5t28 11.5h194q16 0 27.5 -11.5t11.5 -27.5v-838q0 -66 21.5 -122t60.5 -98t93.5 -66.5t121.5 -24.5q68 0 122 24.5t94 65.5t61.5 97t21.5 122v840q0 16 11.5 27.5t27.5 11.5h195q16 0 27.5 -11.5t11.5 -27.5v-852q0 -117 -44 -219.5t-121 -179 t-181.5 -120.5t-225.5 -44t-224 44t-180 120.5t-121 179t-44 219.5zM504 1752q-4 15 6 34l57 106q8 14 24.5 14.5t29.5 -8.5l335 -200q8 -4 13.5 -15.5t-0.5 -23.5l-37 -72q-6 -14 -17.5 -19t-33.5 5l-359 158q-14 6 -18 21z" />
<glyph unicode="&#xda;" horiz-adv-x="1476" d="M168 543v852q0 16 11 27.5t28 11.5h194q16 0 27.5 -11.5t11.5 -27.5v-838q0 -66 21.5 -122t60.5 -98t93.5 -66.5t121.5 -24.5q68 0 122 24.5t94 65.5t61.5 97t21.5 122v840q0 16 11.5 27.5t27.5 11.5h195q16 0 27.5 -11.5t11.5 -27.5v-852q0 -117 -44 -219.5t-121 -179 t-181.5 -120.5t-225.5 -44t-224 44t-180 120.5t-121 179t-44 219.5zM509 1682.5q5 11.5 13 15.5l336 200q37 23 53 -6l58 -106q10 -18 6 -33.5t-19 -21.5l-358 -158q-23 -10 -34 -5t-17 19l-37 72q-6 12 -1 23.5z" />
<glyph unicode="&#xdb;" horiz-adv-x="1476" d="M168 543v852q0 16 11 27.5t28 11.5h194q16 0 27.5 -11.5t11.5 -27.5v-838q0 -66 21.5 -122t60.5 -98t93.5 -66.5t121.5 -24.5q68 0 122 24.5t94 65.5t61.5 97t21.5 122v840q0 16 11.5 27.5t27.5 11.5h195q16 0 27.5 -11.5t11.5 -27.5v-852q0 -117 -44 -219.5t-121 -179 t-181.5 -120.5t-225.5 -44t-224 44t-180 120.5t-121 179t-44 219.5zM435 1672q5 11 16 18l266 206q20 16 43 0l266 -206q10 -6 15.5 -17.5t-3.5 -21.5l-53 -76q-10 -12 -19.5 -14t-27.5 8l-199 125l-200 -125q-18 -10 -27.5 -8t-19.5 14l-54 76q-8 10 -3 21z" />
<glyph unicode="&#xdc;" horiz-adv-x="1476" d="M168 543v852q0 16 11 27.5t28 11.5h194q16 0 27.5 -11.5t11.5 -27.5v-838q0 -66 21.5 -122t60.5 -98t93.5 -66.5t121.5 -24.5q68 0 122 24.5t94 65.5t61.5 97t21.5 122v840q0 16 11.5 27.5t27.5 11.5h195q16 0 27.5 -11.5t11.5 -27.5v-852q0 -117 -44 -219.5t-121 -179 t-181.5 -120.5t-225.5 -44t-224 44t-180 120.5t-121 179t-44 219.5zM354 1718q0 53 38 91t91 38t92 -37.5t39 -91.5q0 -53 -39 -92t-92 -39t-91 39t-38 92zM860 1718q0 53 38 91t91 38t92 -37.5t39 -91.5q0 -53 -39 -92t-92 -39t-91 39t-38 92z" />
<glyph unicode="&#xdd;" horiz-adv-x="1193" d="M-8 1414q10 20 35 20h209q12 0 20 -6.5t12 -12.5l328 -471l328 471q4 6 12 12.5t20 6.5h211q25 0 35 -19.5t-2 -40.5l-473 -682v-653q0 -16 -11 -27.5t-28 -11.5h-188q-16 0 -27.5 11.5t-11.5 27.5v651l-467 684q-12 20 -2 40zM364 1682.5q5 11.5 13 15.5l336 200 q37 23 53 -6l57 -106q10 -18 6 -33.5t-18 -21.5l-358 -158q-23 -10 -34 -5t-18 19l-36 72q-6 12 -1 23.5z" />
<glyph unicode="&#xde;" horiz-adv-x="1210" d="M186 39v1356q0 16 11.5 27.5t27.5 11.5h189q16 0 27.5 -11.5t11.5 -27.5v-221h254q94 0 178 -36t146.5 -97.5t98 -144.5t35.5 -175q0 -96 -35.5 -179t-98 -146.5t-145.5 -99.5t-177 -36h-256v-221q0 -16 -11.5 -27.5t-27.5 -11.5h-189q-16 0 -27.5 11.5t-11.5 27.5z M453 510h237q43 0 81 16.5t67.5 45t46 67.5t16.5 84q0 43 -16.5 79t-46 62.5t-67.5 42t-81 15.5h-237v-412z" />
<glyph unicode="&#xdf;" horiz-adv-x="1058" d="M123 39v805q0 154 35 268.5t98 190t152.5 113.5t199.5 38q63 0 125 -18.5t111 -58.5t78.5 -100t29.5 -144q0 -70 -25.5 -128.5t-55 -109.5t-55 -95t-25.5 -83q0 -33 32.5 -72t71.5 -90t71.5 -114.5t32.5 -145.5q0 -84 -29.5 -144.5t-77.5 -98.5t-107.5 -55t-120.5 -17 q-23 0 -54.5 5t-36.5 35l-18 138q-2 14 8 27.5t27 11.5q55 -4 104 21.5t49 82.5q0 49 -33.5 92t-73.5 87t-73 92.5t-33 107.5q0 53 26 108.5t57.5 111.5t57 112.5t25.5 109.5q0 49 -32.5 80t-79.5 31q-37 0 -74 -19.5t-66.5 -64.5t-49 -121t-19.5 -188v-801 q0 -16 -11.5 -27.5t-27.5 -11.5h-174q-16 0 -27.5 11.5t-11.5 27.5z" />
<glyph unicode="&#xe0;" horiz-adv-x="872" d="M63 260q0 111 85 184.5t243 73.5q31 0 57.5 -4t47.5 -8q23 -6 45 -10q2 78 -23.5 109.5t-83.5 31.5q-29 0 -61.5 -3t-64.5 -7t-58.5 -9.5t-44.5 -11.5q-23 -6 -33 5.5t-14 31.5l-19 107q-4 23 5.5 35t23.5 16q6 2 31.5 8t64.5 13t86 12.5t96 5.5q96 0 158 -24.5t96.5 -71 t48 -112t13.5 -149.5v-444q0 -16 -11.5 -27.5t-27.5 -11.5h-74q-10 0 -18 6t-17 23l-24 55q-35 -33 -95.5 -68.5t-154.5 -35.5q-123 0 -200 74.5t-77 205.5zM232.5 1259.5q-5.5 14.5 5.5 34.5l57 105q8 14 23.5 15t29.5 -9l336 -199q10 -4 14 -15t-2 -24l-37 -73 q-12 -29 -51 -13l-358 158q-12 6 -17.5 20.5zM289 260q0 -47 29.5 -76.5t76.5 -29.5q25 0 48.5 9t43 21.5t32.5 25.5t18 23v113q-16 6 -35 12q-16 4 -37 8.5t-43 4.5q-59 0 -96 -31t-37 -80z" />
<glyph unicode="&#xe1;" horiz-adv-x="872" d="M63 260q0 111 85 184.5t243 73.5q31 0 57.5 -4t47.5 -8q23 -6 45 -10q2 78 -23.5 109.5t-83.5 31.5q-29 0 -61.5 -3t-64.5 -7t-58.5 -9.5t-44.5 -11.5q-23 -6 -33 5.5t-14 31.5l-19 107q-4 23 5.5 35t23.5 16q6 2 31.5 8t64.5 13t86 12.5t96 5.5q96 0 158 -24.5t96.5 -71 t48 -112t13.5 -149.5v-444q0 -16 -11.5 -27.5t-27.5 -11.5h-74q-10 0 -18 6t-17 23l-24 55q-35 -33 -95.5 -68.5t-154.5 -35.5q-123 0 -200 74.5t-77 205.5zM229 1189.5q4 10.5 15 16.5l334 199q14 10 29.5 9t23.5 -15l59 -105q10 -20 5 -34.5t-17 -20.5l-359 -158 q-23 -10 -34 -6t-19 19l-35 73q-6 12 -2 22.5zM289 260q0 -47 29.5 -76.5t76.5 -29.5q25 0 48.5 9t43 21.5t32.5 25.5t18 23v113q-16 6 -35 12q-16 4 -37 8.5t-43 4.5q-59 0 -96 -31t-37 -80z" />
<glyph unicode="&#xe2;" horiz-adv-x="872" d="M63 260q0 111 85 184.5t243 73.5q31 0 57.5 -4t47.5 -8q23 -6 45 -10q2 78 -23.5 109.5t-83.5 31.5q-29 0 -61.5 -3t-64.5 -7t-58.5 -9.5t-44.5 -11.5q-23 -6 -33 5.5t-14 31.5l-19 107q-4 23 5.5 35t23.5 16q6 2 31.5 8t64.5 13t86 12.5t96 5.5q96 0 158 -24.5t96.5 -71 t48 -112t13.5 -149.5v-444q0 -16 -11.5 -27.5t-27.5 -11.5h-74q-10 0 -18 6t-17 23l-24 55q-35 -33 -95.5 -68.5t-154.5 -35.5q-123 0 -200 74.5t-77 205.5zM136 1180.5q5 11.5 16 17.5l266 207q20 16 43 0l266 -207q10 -6 15.5 -17.5t-3.5 -21.5l-53 -76q-10 -12 -19.5 -14 t-27.5 8l-199 125l-200 -125q-18 -10 -27.5 -8t-19.5 14l-54 76q-8 10 -3 21.5zM289 260q0 -47 29.5 -76.5t76.5 -29.5q25 0 48.5 9t43 21.5t32.5 25.5t18 23v113q-16 6 -35 12q-16 4 -37 8.5t-43 4.5q-59 0 -96 -31t-37 -80z" />
<glyph unicode="&#xe3;" horiz-adv-x="872" d="M63 260q0 111 85 184.5t243 73.5q31 0 57.5 -4t47.5 -8q23 -6 45 -10q2 78 -23.5 109.5t-83.5 31.5q-29 0 -61.5 -3t-64.5 -7t-58.5 -9.5t-44.5 -11.5q-23 -6 -33 5.5t-14 31.5l-19 107q-4 23 5.5 35t23.5 16q6 2 31.5 8t64.5 13t86 12.5t96 5.5q96 0 158 -24.5t96.5 -71 t48 -112t13.5 -149.5v-444q0 -16 -11.5 -27.5t-27.5 -11.5h-74q-10 0 -18 6t-17 23l-24 55q-35 -33 -95.5 -68.5t-154.5 -35.5q-123 0 -200 74.5t-77 205.5zM126 1216.5q-3 14.5 1 24.5q8 14 24.5 43t43 57.5t62.5 50t83 21.5q39 0 67.5 -17.5t52 -39t47 -39t52.5 -17.5 q27 0 43 19.5t28.5 39t26 31t35.5 -5.5l58 -41q14 -10 13 -27.5t-11 -35.5q-8 -14 -23.5 -41t-40 -52.5t-58.5 -44t-77 -18.5q-41 0 -70.5 17.5t-55.5 39t-49.5 40t-47.5 18.5q-29 0 -43.5 -19.5t-26.5 -39t-25.5 -31.5t-35.5 2l-60 43q-10 8 -13 22.5zM289 260 q0 -47 29.5 -76.5t76.5 -29.5q25 0 48.5 9t43 21.5t32.5 25.5t18 23v113q-16 6 -35 12q-16 4 -37 8.5t-43 4.5q-59 0 -96 -31t-37 -80z" />
<glyph unicode="&#xe4;" horiz-adv-x="872" d="M63 260q0 111 85 184.5t243 73.5q31 0 57.5 -4t47.5 -8q23 -6 45 -10q2 78 -23.5 109.5t-83.5 31.5q-29 0 -61.5 -3t-64.5 -7t-58.5 -9.5t-44.5 -11.5q-23 -6 -33 5.5t-14 31.5l-19 107q-4 23 5.5 35t23.5 16q6 2 31.5 8t64.5 13t86 12.5t96 5.5q96 0 158 -24.5t96.5 -71 t48 -112t13.5 -149.5v-444q0 -16 -11.5 -27.5t-27.5 -11.5h-74q-10 0 -18 6t-17 23l-24 55q-35 -33 -95.5 -68.5t-154.5 -35.5q-123 0 -200 74.5t-77 205.5zM113 1260q0 53 37.5 91t91.5 38q53 0 92 -38t39 -91t-39 -92.5t-92 -39.5t-91 39t-38 93zM289 260 q0 -47 29.5 -76.5t76.5 -29.5q25 0 48.5 9t43 21.5t32.5 25.5t18 23v113q-16 6 -35 12q-16 4 -37 8.5t-43 4.5q-59 0 -96 -31t-37 -80zM524 1260q0 53 38 91t91 38t92 -38t39 -91t-39 -92.5t-92 -39.5t-91 39t-38 93z" />
<glyph unicode="&#xe5;" horiz-adv-x="872" d="M63 260q0 111 85 184.5t243 73.5q31 0 57.5 -4t47.5 -8q23 -6 45 -10q2 78 -23.5 109.5t-83.5 31.5q-29 0 -61.5 -3t-64.5 -7t-58.5 -9.5t-44.5 -11.5q-23 -6 -33 5.5t-14 31.5l-19 107q-4 23 5.5 35t23.5 16q6 2 31.5 8t64.5 13t86 12.5t96 5.5q96 0 158 -24.5t96.5 -71 t48 -112t13.5 -149.5v-444q0 -16 -11.5 -27.5t-27.5 -11.5h-74q-10 0 -18 6t-17 23l-24 55q-35 -33 -95.5 -68.5t-154.5 -35.5q-123 0 -200 74.5t-77 205.5zM219 1223q0 49 18.5 91t49 72.5t72.5 49t92 18.5q47 0 89 -18.5t73.5 -49t50 -72.5t18.5 -91t-18.5 -91t-50 -73 t-73.5 -49.5t-89 -18.5q-49 0 -91.5 18.5t-73 49.5t-49 73t-18.5 91zM289 260q0 -47 29.5 -76.5t76.5 -29.5q25 0 48.5 9t43 21.5t32.5 25.5t18 23v113q-16 6 -35 12q-16 4 -37 8.5t-43 4.5q-59 0 -96 -31t-37 -80zM348 1223q0 -41 31 -72t72 -31t69.5 31t28.5 72 t-28.5 69.5t-69.5 28.5t-72 -28.5t-31 -69.5z" />
<glyph unicode="&#xe6;" horiz-adv-x="1372" d="M61 260q0 111 84 184.5t236 73.5q31 0 58.5 -2t49.5 -6q25 -4 48 -8q-4 78 -24.5 113.5t-88.5 35.5q-59 0 -123.5 -11t-99.5 -22q-16 -2 -29.5 7.5t-17.5 25.5l-19 111q-2 16 8.5 26.5t24.5 14.5q45 10 92 18q41 6 90 12.5t96 6.5q98 0 157 -21.5t91 -62.5 q51 41 112.5 62.5t133.5 21.5q78 0 147.5 -28t122 -78t83 -120.5t30.5 -154.5q0 -29 -5 -59.5t-38 -30.5h-522q4 -31 18.5 -64t39 -58.5t59 -42t77.5 -16.5q47 0 90 16.5t72 37.5q14 10 28.5 12t24.5 -12l82 -97q10 -12 12.5 -26.5t-14.5 -26.5q-51 -47 -128 -79.5 t-177 -32.5q-94 0 -173 33.5t-134 99.5q-12 -16 -39 -40t-63.5 -44.5t-84 -34.5t-104.5 -14q-127 0 -205 75.5t-78 204.5zM287 266q0 -51 33.5 -80.5t80.5 -29.5q35 0 59.5 13t41.5 30q20 18 35 43v106q-16 6 -37 12q-16 4 -40 9.5t-50 5.5q-49 0 -86 -30t-37 -79zM776 514 h307q-4 59 -47 98t-102 39q-61 0 -105.5 -39t-52.5 -98z" />
<glyph unicode="&#xe7;" horiz-adv-x="876" d="M61 410q0 90 36 168.5t96.5 137t139.5 91.5t165 33q96 0 169.5 -37t133.5 -109q10 -14 8 -30.5t-18 -26.5l-95 -90q-14 -12 -27.5 -8t-23.5 14q-25 29 -61.5 47t-79.5 18q-41 0 -78 -16t-64.5 -45t-43 -66.5t-15.5 -80.5q0 -88 57.5 -148.5t141.5 -60.5q66 0 100.5 25.5 t63.5 52.5q25 25 51 6l88 -76q35 -29 14 -57q-53 -80 -131 -125t-184 -47v-84q94 -12 146 -68.5t52 -142.5q0 -45 -17 -84t-46 -69t-69 -46t-85 -16q-47 0 -88 20.5t-67 50.5q-12 14 -10 29.5t16 28.5l41 34q10 10 22.5 9.5t20.5 -11.5q12 -14 29.5 -19t31.5 -5 q31 0 51.5 22.5t20.5 53.5q0 37 -35 65.5t-115 34.5q-23 4 -28.5 16.5t-5.5 20.5v180q-66 18 -122.5 57t-97 92.5t-64.5 119t-24 141.5z" />
<glyph unicode="&#xe8;" horiz-adv-x="911" d="M61 410q0 86 31 164.5t86 137t132 93.5t169 35q80 0 149.5 -29t122 -79t82 -120.5t29.5 -152.5q0 -10 -1 -27.5t-3 -28.5q-2 -16 -13 -25t-26 -9h-524q2 -31 16.5 -63t40 -57.5t60 -42t80.5 -16.5q47 0 89 15.5t70 36.5q35 20 54 0l83 -97q10 -10 12.5 -25.5t-14.5 -27.5 q-51 -47 -127.5 -79.5t-177.5 -32.5q-92 0 -168.5 33.5t-133 92t-87.5 137.5t-31 167zM243 1259.5q-5 14.5 5 34.5l57 105q8 14 23.5 15t29.5 -9l336 -199q10 -4 14.5 -15t-1.5 -24l-37 -73q-12 -29 -52 -13l-358 158q-12 6 -17 20.5zM313 512h310q-4 57 -47.5 98t-102.5 41 q-61 0 -106 -40t-54 -99z" />
<glyph unicode="&#xe9;" horiz-adv-x="911" d="M61 410q0 86 31 164.5t86 137t132 93.5t169 35q80 0 149.5 -29t122 -79t82 -120.5t29.5 -152.5q0 -10 -1 -27.5t-3 -28.5q-2 -16 -13 -25t-26 -9h-524q2 -31 16.5 -63t40 -57.5t60 -42t80.5 -16.5q47 0 89 15.5t70 36.5q35 20 54 0l83 -97q10 -10 12.5 -25.5t-14.5 -27.5 q-51 -47 -127.5 -79.5t-177.5 -32.5q-92 0 -168.5 33.5t-133 92t-87.5 137.5t-31 167zM238 1189.5q4 10.5 14 16.5l334 199q14 10 29.5 9t23.5 -15l59 -105q10 -20 5 -34.5t-17 -20.5l-358 -158q-23 -10 -34 -6t-20 19l-34 73q-6 12 -2 22.5zM313 512h310q-4 57 -47.5 98 t-102.5 41q-61 0 -106 -40t-54 -99z" />
<glyph unicode="&#xea;" horiz-adv-x="911" d="M61 410q0 86 31 164.5t86 137t132 93.5t169 35q80 0 149.5 -29t122 -79t82 -120.5t29.5 -152.5q0 -10 -1 -27.5t-3 -28.5q-2 -16 -13 -25t-26 -9h-524q2 -31 16.5 -63t40 -57.5t60 -42t80.5 -16.5q47 0 89 15.5t70 36.5q35 20 54 0l83 -97q10 -10 12.5 -25.5t-14.5 -27.5 q-51 -47 -127.5 -79.5t-177.5 -32.5q-92 0 -168.5 33.5t-133 92t-87.5 137.5t-31 167zM171 1180.5q5 11.5 15 17.5l267 207q20 16 43 0l266 -207q10 -6 15 -17.5t-3 -21.5l-53 -76q-10 -12 -19.5 -14t-27.5 8l-199 125l-201 -125q-18 -10 -27 -8t-20 14l-53 76 q-8 10 -3 21.5zM313 512h310q-4 57 -47.5 98t-102.5 41q-61 0 -106 -40t-54 -99z" />
<glyph unicode="&#xeb;" horiz-adv-x="911" d="M61 410q0 86 31 164.5t86 137t132 93.5t169 35q80 0 149.5 -29t122 -79t82 -120.5t29.5 -152.5q0 -10 -1 -27.5t-3 -28.5q-2 -16 -13 -25t-26 -9h-524q2 -31 16.5 -63t40 -57.5t60 -42t80.5 -16.5q47 0 89 15.5t70 36.5q35 20 54 0l83 -97q10 -10 12.5 -25.5t-14.5 -27.5 q-51 -47 -127.5 -79.5t-177.5 -32.5q-92 0 -168.5 33.5t-133 92t-87.5 137.5t-31 167zM139 1260q0 53 38 91t91 38t92 -38t39 -91t-39 -92.5t-92 -39.5t-91 39t-38 93zM313 512h310q-4 57 -47.5 98t-102.5 41q-61 0 -106 -40t-54 -99zM551 1260q0 53 38 91t91 38t92 -38 t39 -91t-39 -92.5t-92 -39.5t-91 39t-38 93z" />
<glyph unicode="&#xec;" horiz-adv-x="493" d="M11.5 1259.5q-5.5 14.5 4.5 34.5l58 105q8 14 23.5 15t29.5 -9l336 -199q10 -4 14 -15t-2 -24l-37 -73q-12 -29 -51 -13l-358 158q-12 6 -17.5 20.5zM123 39v741q0 16 11 27.5t28 11.5h170q16 0 27.5 -11t11.5 -28v-741q0 -16 -11.5 -27.5t-27.5 -11.5h-170 q-16 0 -27.5 11.5t-11.5 27.5z" />
<glyph unicode="&#xed;" horiz-adv-x="493" d="M8 1189.5q4 10.5 15 16.5l333 199q14 10 29.5 9t24.5 -15l59 -105q10 -20 5 -34.5t-17 -20.5l-359 -158q-23 -10 -34 -6t-19 19l-35 73q-6 12 -2 22.5zM123 39v741q0 16 11 27.5t28 11.5h170q16 0 27.5 -11t11.5 -28v-741q0 -16 -11.5 -27.5t-27.5 -11.5h-170 q-16 0 -27.5 11.5t-11.5 27.5z" />
<glyph unicode="&#xee;" horiz-adv-x="493" d="M-60 1180.5q5 11.5 15 17.5l266 207q20 16 43 0l266 -207q10 -6 15.5 -17.5t-2.5 -21.5l-54 -76q-10 -12 -19 -14t-28 8l-198 125l-201 -125q-18 -10 -27.5 -8t-19.5 14l-53 76q-8 10 -3 21.5zM123 39v741q0 16 11 27.5t28 11.5h170q16 0 27.5 -11t11.5 -28v-741 q0 -16 -11.5 -27.5t-27.5 -11.5h-170q-16 0 -27.5 11.5t-11.5 27.5z" />
<glyph unicode="&#xef;" horiz-adv-x="493" d="M-90 1260q0 53 38 91t91 38t92 -38t39 -91t-39 -92.5t-92 -39.5t-91 39t-38 93zM123 39v741q0 16 11 27.5t28 11.5h170q16 0 27.5 -11t11.5 -28v-741q0 -16 -11.5 -27.5t-27.5 -11.5h-170q-16 0 -27.5 11.5t-11.5 27.5zM322 1260q0 53 37.5 91t91.5 38q53 0 92 -38 t39 -91t-39 -92.5t-92 -39.5t-91 39t-38 93z" />
<glyph unicode="&#xf0;" horiz-adv-x="1081" d="M59 449q0 111 37 193.5t95.5 138t133 84t152.5 28.5q37 0 73 -6t67.5 -15.5t56 -18.5t37.5 -17q-25 86 -84.5 152.5t-130.5 117.5l-166 -96q-14 -8 -28.5 -4t-22.5 16l-15 27q-8 12 -5 27.5t17 23.5l119 67q-41 23 -76.5 38.5t-58.5 23.5q-29 10 -37 25.5t0 33.5l47 121 q12 41 58 29q47 -18 120.5 -53t159.5 -93l142 82q16 8 30.5 3t22.5 -19l14 -23q8 -14 5 -29.5t-17 -23.5l-107 -61q61 -53 117.5 -120t99.5 -151t69 -185t26 -220q0 -115 -31 -218.5t-92.5 -180t-152.5 -121.5t-212 -45q-94 0 -178 36.5t-147.5 100t-100.5 150t-37 182.5z M291 453q0 -49 18.5 -92.5t50 -76t73.5 -52t91 -19.5q61 0 107.5 27.5t75 70.5t43 96.5t14.5 106.5q-8 27 -27.5 58.5t-49.5 58t-69.5 44t-91.5 17.5q-49 0 -92 -19.5t-74.5 -51t-50 -75.5t-18.5 -93z" />
<glyph unicode="&#xf1;" horiz-adv-x="1062" d="M123 39v741q0 16 11 27.5t28 11.5h78q25 0 34 -24l29 -76q12 12 35.5 32.5t60.5 40t85 34t108 14.5q98 0 166.5 -34t112.5 -90.5t64.5 -130t20.5 -153.5v-393q0 -16 -11 -27.5t-27 -11.5h-168q-16 0 -27.5 11.5t-11.5 27.5v405q0 80 -40 127t-114 47q-41 0 -72.5 -12 t-56.5 -31.5t-40 -42t-23 -43.5v-450q0 -23 -11.5 -31t-40.5 -8h-151q-16 0 -27.5 11.5t-11.5 27.5zM230.5 1216.5q-3.5 14.5 0.5 24.5q8 14 24.5 43t43.5 57.5t62.5 50t82.5 21.5q39 0 68 -17.5t52.5 -39t47 -39t52.5 -17.5q27 0 43 19.5t28.5 39t25.5 31t36 -5.5l57 -41 q14 -10 13 -27.5t-11 -35.5q-8 -14 -23.5 -41t-40 -52.5t-58.5 -44t-77 -18.5q-41 0 -70.5 17.5t-55 39t-49 40t-48.5 18.5q-29 0 -43 -19.5t-26.5 -39t-25.5 -31.5t-36 2l-59 43q-10 8 -13.5 22.5z" />
<glyph unicode="&#xf2;" horiz-adv-x="958" d="M59 412q0 86 33 163.5t90.5 136t134 93.5t162.5 35t163 -35t134.5 -93.5t90 -136t32.5 -163.5q0 -88 -32.5 -167t-90 -137.5t-134.5 -93t-163 -34.5t-162.5 34.5t-134 93t-90.5 137.5t-33 167zM251 1259.5q-5 14.5 5 34.5l57 105q8 14 23.5 15t30.5 -9l335 -199 q10 -4 14.5 -15t-1.5 -24l-37 -73q-12 -29 -51 -13l-359 158q-12 6 -17 20.5zM283 412q0 -88 56 -149.5t140 -61.5q41 0 77 16t62.5 45t42 68t15.5 82t-15.5 80.5t-42 65.5t-62.5 44t-77 16t-76.5 -16t-62.5 -44t-42 -65.5t-15 -80.5z" />
<glyph unicode="&#xf3;" horiz-adv-x="958" d="M59 412q0 86 33 163.5t90.5 136t134 93.5t162.5 35t163 -35t134.5 -93.5t90 -136t32.5 -163.5q0 -88 -32.5 -167t-90 -137.5t-134.5 -93t-163 -34.5t-162.5 34.5t-134 93t-90.5 137.5t-33 167zM244 1189.5q4 10.5 14 16.5l334 199q14 10 29.5 9t23.5 -15l60 -105 q10 -20 5 -34.5t-18 -20.5l-358 -158q-23 -10 -34 -6t-19 19l-35 73q-6 12 -2 22.5zM283 412q0 -88 56 -149.5t140 -61.5q41 0 77 16t62.5 45t42 68t15.5 82t-15.5 80.5t-42 65.5t-62.5 44t-77 16t-76.5 -16t-62.5 -44t-42 -65.5t-15 -80.5z" />
<glyph unicode="&#xf4;" horiz-adv-x="958" d="M59 412q0 86 33 163.5t90.5 136t134 93.5t162.5 35t163 -35t134.5 -93.5t90 -136t32.5 -163.5q0 -88 -32.5 -167t-90 -137.5t-134.5 -93t-163 -34.5t-162.5 34.5t-134 93t-90.5 137.5t-33 167zM173 1180.5q5 11.5 15 17.5l267 207q20 16 43 0l266 -207q10 -6 15 -17.5 t-3 -21.5l-53 -76q-10 -12 -19.5 -14t-27.5 8l-199 125l-201 -125q-18 -10 -27 -8t-20 14l-53 76q-8 10 -3 21.5zM283 412q0 -88 56 -149.5t140 -61.5q41 0 77 16t62.5 45t42 68t15.5 82t-15.5 80.5t-42 65.5t-62.5 44t-77 16t-76.5 -16t-62.5 -44t-42 -65.5t-15 -80.5z" />
<glyph unicode="&#xf5;" horiz-adv-x="958" d="M59 412q0 86 33 163.5t90.5 136t134 93.5t162.5 35t163 -35t134.5 -93.5t90 -136t32.5 -163.5q0 -88 -32.5 -167t-90 -137.5t-134.5 -93t-163 -34.5t-162.5 34.5t-134 93t-90.5 137.5t-33 167zM159 1216.5q-3 14.5 1 24.5q8 14 24.5 43t43 57.5t62.5 50t83 21.5 q39 0 67.5 -17.5t52 -39t47 -39t52.5 -17.5q27 0 43 19.5t28.5 39t25.5 31t36 -5.5l57 -41q14 -10 13.5 -27.5t-11.5 -35.5q-8 -14 -23.5 -41t-40 -52.5t-58 -44t-76.5 -18.5q-41 0 -71 17.5t-55.5 39t-49 40t-48.5 18.5q-29 0 -43 -19.5t-26 -39t-25.5 -31.5t-36.5 2 l-59 43q-10 8 -13 22.5zM283 412q0 -88 56 -149.5t140 -61.5q41 0 77 16t62.5 45t42 68t15.5 82t-15.5 80.5t-42 65.5t-62.5 44t-77 16t-76.5 -16t-62.5 -44t-42 -65.5t-15 -80.5z" />
<glyph unicode="&#xf6;" horiz-adv-x="958" d="M59 412q0 86 33 163.5t90.5 136t134 93.5t162.5 35t163 -35t134.5 -93.5t90 -136t32.5 -163.5q0 -88 -32.5 -167t-90 -137.5t-134.5 -93t-163 -34.5t-162.5 34.5t-134 93t-90.5 137.5t-33 167zM141 1260q0 53 38 91t91 38t92 -38t39 -91t-39 -92.5t-92 -39.5t-91 39 t-38 93zM283 412q0 -88 56 -149.5t140 -61.5q41 0 77 16t62.5 45t42 68t15.5 82t-15.5 80.5t-42 65.5t-62.5 44t-77 16t-76.5 -16t-62.5 -44t-42 -65.5t-15 -80.5zM553 1260q0 53 38 91t91 38t92 -38t39 -91t-39 -92.5t-92 -39.5t-91 39t-38 93z" />
<glyph unicode="&#xf7;" horiz-adv-x="1034" d="M76 651v115q0 16 11 27.5t28 11.5h807q16 0 26 -11.5t10 -27.5v-115q0 -16 -10 -27.5t-26 -11.5h-807q-16 0 -27.5 11.5t-11.5 27.5zM371 328q0 59 40 99t99 40t100 -40t41 -99t-41 -100.5t-100 -41.5t-99 41.5t-40 100.5zM371 1106q0 59 41 100t100 41t100 -41t41 -100 q0 -57 -41 -99t-100 -42t-100 42t-41 99z" />
<glyph unicode="&#xf8;" horiz-adv-x="958" d="M61 414q0 86 33 163.5t90.5 136t134 92.5t162.5 34q72 0 138.5 -26t119.5 -69l54 54q10 12 26.5 11t26.5 -11l20 -21q29 -25 0 -53l-53 -53q41 -53 63.5 -120t22.5 -138q0 -88 -32.5 -167t-89 -138.5t-133.5 -94t-163 -34.5q-74 0 -140.5 24.5t-119.5 67.5l-43 -45 q-10 -10 -27.5 -10.5t-27.5 12.5l-19 20q-10 10 -11 26.5t9 26.5l45 45q-41 53 -63.5 123t-22.5 144zM285 414q0 -57 22 -103l275 277q-43 31 -101 30q-41 0 -76.5 -16t-62.5 -44t-42 -64.5t-15 -79.5zM379 229q45 -29 102 -28q41 0 77 16t61.5 46t41 69t15.5 82 q0 51 -23 96z" />
<glyph unicode="&#xf9;" horiz-adv-x="1030" d="M109 383v397q0 16 11 27.5t27 11.5h168q16 0 27.5 -11t11.5 -28v-403q0 -82 39 -129t111 -47q66 0 109.5 49t54.5 104v426q0 23 10 31t35 8h155q16 0 27.5 -11t11.5 -28v-741q0 -16 -11 -27.5t-28 -11.5h-75q-16 0 -25.5 9t-13.5 22l-25 67q-14 -12 -35.5 -32.5 t-54.5 -39t-78 -32.5t-106 -14q-96 0 -162 33.5t-107 90t-59 129t-18 150.5zM288 1259.5q-5 14.5 5 34.5l57 105q8 14 23.5 15t29.5 -9l336 -199q10 -4 14.5 -15t-1.5 -24l-37 -73q-12 -29 -51 -13l-359 158q-12 6 -17 20.5z" />
<glyph unicode="&#xfa;" horiz-adv-x="1030" d="M109 383v397q0 16 11 27.5t27 11.5h168q16 0 27.5 -11t11.5 -28v-403q0 -82 39 -129t111 -47q66 0 109.5 49t54.5 104v426q0 23 10 31t35 8h155q16 0 27.5 -11t11.5 -28v-741q0 -16 -11 -27.5t-28 -11.5h-75q-16 0 -25.5 9t-13.5 22l-25 67q-14 -12 -35.5 -32.5 t-54.5 -39t-78 -32.5t-106 -14q-96 0 -162 33.5t-107 90t-59 129t-18 150.5zM283 1189.5q4 10.5 14 16.5l334 199q14 10 29.5 9t23.5 -15l59 -105q10 -20 5 -34.5t-17 -20.5l-358 -158q-23 -10 -34 -6t-20 19l-34 73q-6 12 -2 22.5z" />
<glyph unicode="&#xfb;" horiz-adv-x="1030" d="M109 383v397q0 16 11 27.5t27 11.5h168q16 0 27.5 -11t11.5 -28v-403q0 -82 39 -129t111 -47q66 0 109.5 49t54.5 104v426q0 23 10 31t35 8h155q16 0 27.5 -11t11.5 -28v-741q0 -16 -11 -27.5t-28 -11.5h-75q-16 0 -25.5 9t-13.5 22l-25 67q-14 -12 -35.5 -32.5 t-54.5 -39t-78 -32.5t-106 -14q-96 0 -162 33.5t-107 90t-59 129t-18 150.5zM208 1180.5q5 11.5 15 17.5l266 207q20 16 43 0l267 -207q10 -6 15 -17.5t-3 -21.5l-53 -76q-10 -12 -19.5 -14t-27.5 8l-199 125l-201 -125q-18 -10 -27.5 -8t-19.5 14l-53 76q-8 10 -3 21.5z " />
<glyph unicode="&#xfc;" horiz-adv-x="1030" d="M109 383v397q0 16 11 27.5t27 11.5h168q16 0 27.5 -11t11.5 -28v-403q0 -82 39 -129t111 -47q66 0 109.5 49t54.5 104v426q0 23 10 31t35 8h155q16 0 27.5 -11t11.5 -28v-741q0 -16 -11 -27.5t-28 -11.5h-75q-16 0 -25.5 9t-13.5 22l-25 67q-14 -12 -35.5 -32.5 t-54.5 -39t-78 -32.5t-106 -14q-96 0 -162 33.5t-107 90t-59 129t-18 150.5zM190 1260q0 53 38 91t91 38t92.5 -38t39.5 -91t-39.5 -92.5t-92.5 -39.5t-91 39t-38 93zM602 1260q0 53 38 91t91 38t92 -38t39 -91t-39 -92.5t-92 -39.5t-91 39t-38 93z" />
<glyph unicode="&#xfd;" horiz-adv-x="948" d="M16 766q-10 20 1.5 36.5t33.5 16.5h185q23 0 34 -22l207 -463h2l205 463q8 16 19.5 19t29.5 3h164q25 0 35 -16.5t0 -36.5l-627 -1356q-4 -10 -13 -17t-22 -7h-176q-23 0 -34 16t-1 39l291 616zM246 1189.5q4 10.5 14 16.5l334 199q14 10 29.5 9t23.5 -15l60 -105 q10 -20 5 -34.5t-18 -20.5l-358 -158q-23 -10 -34 -6t-19 19l-35 73q-6 12 -2 22.5z" />
<glyph unicode="&#xfe;" horiz-adv-x="1024" d="M123 -578v1973q0 16 11 27.5t28 11.5h174q16 0 27.5 -11.5t11.5 -27.5v-615q25 16 73 37t119 21q84 0 157 -34t126 -92.5t83 -136t30 -165.5q0 -92 -33 -170t-89.5 -136.5t-132 -91t-161.5 -32.5q-53 0 -100.5 16t-71.5 29v-603q0 -16 -11.5 -27t-27.5 -11h-174 q-16 0 -27.5 11t-11.5 27zM375 258q16 -18 55 -36.5t96 -18.5q86 0 142.5 59.5t56.5 147.5q0 43 -14.5 80.5t-40 66.5t-61.5 45t-79 16q-72 0 -110.5 -29.5t-44.5 -47.5v-283z" />
<glyph unicode="&#xff;" horiz-adv-x="948" d="M16 766q-10 20 1.5 36.5t33.5 16.5h185q23 0 34 -22l207 -463h2l205 463q8 16 19.5 19t29.5 3h164q25 0 35 -16.5t0 -36.5l-627 -1356q-4 -10 -13 -17t-22 -7h-176q-23 0 -34 16t-1 39l291 616zM141 1260q0 53 38 91t91 38t92 -38t39 -91t-39 -92.5t-92 -39.5t-91 39 t-38 93zM553 1260q0 53 38 91t91 38t92 -38t39 -91t-39 -92.5t-92 -39.5t-91 39t-38 93z" />
<glyph unicode="&#x152;" horiz-adv-x="1996" d="M84 715q0 154 57.5 289t156.5 234t233.5 157.5t287.5 58.5q41 0 77 -3t65 -7q31 -6 57 -10h833q16 0 27.5 -11.5t11.5 -27.5v-168q0 -16 -11 -27.5t-28 -11.5h-606v-336h506q16 0 27.5 -11.5t11.5 -27.5v-170q0 -16 -11.5 -27.5t-27.5 -11.5h-506v-358h606 q16 0 27.5 -11.5t11.5 -27.5v-168q0 -16 -11 -27.5t-28 -11.5h-833q-33 -6 -68 -10q-29 -4 -64.5 -7t-66.5 -3q-154 0 -288 57t-233 156.5t-156.5 233.5t-57.5 288zM350 715q0 -96 37 -182.5t100.5 -151t149.5 -102t182 -37.5q41 0 81 5t79 21v895q-80 29 -160 29 q-96 0 -182 -38t-149.5 -103.5t-100.5 -152.5t-37 -183z" />
<glyph unicode="&#x153;" horiz-adv-x="1499" d="M59 414q0 86 33 163.5t90.5 136t134 92.5t162.5 34t162 -35t131 -94q53 59 128 94t167 35q78 0 147.5 -28t122 -78t83 -120.5t30.5 -154.5q0 -10 -1 -27.5t-3 -28.5q-2 -16 -13.5 -25t-25.5 -9h-522q4 -31 18.5 -64t39 -58.5t59 -42t77.5 -16.5q47 0 90 16.5t72 37.5 q14 10 28.5 12t24.5 -12l82 -97q10 -12 12.5 -26.5t-14.5 -26.5q-49 -47 -127 -79.5t-178 -32.5q-92 0 -167 34.5t-130 94.5q-55 -59 -131 -94t-162 -35t-162.5 34.5t-134 94t-90.5 138.5t-33 167zM283 414q0 -43 15 -82t42 -69t62.5 -46t76.5 -16t77 16t62.5 46t42 69 t15.5 82t-15.5 79.5t-42 64.5t-62.5 44t-77 16t-76.5 -16t-62.5 -44t-42 -64.5t-15 -79.5zM903 512h307q-4 59 -47 98t-102 39q-61 0 -105.5 -39t-52.5 -98z" />
<glyph unicode="&#x178;" horiz-adv-x="1193" d="M-8 1414q10 20 35 20h209q12 0 20 -6.5t12 -12.5l328 -471l328 471q4 6 12 12.5t20 6.5h211q25 0 35 -19.5t-2 -40.5l-473 -682v-653q0 -16 -11 -27.5t-28 -11.5h-188q-16 0 -27.5 11.5t-11.5 27.5v651l-467 684q-12 20 -2 40zM213 1718q0 53 38 91t91 38t92 -37.5 t39 -91.5q0 -53 -39 -92t-92 -39t-91 39t-38 92zM719 1718q0 53 38 91t91 38t92 -37.5t39 -91.5q0 -53 -39 -92t-92 -39t-91 39t-38 92z" />
<glyph unicode="&#x2c6;" horiz-adv-x="763" d="M73 1180.5q5 11.5 15 17.5l266 207q20 16 43 0l267 -207q10 -6 15 -17.5t-3 -21.5l-53 -76q-10 -12 -19.5 -14t-28.5 8l-198 125l-201 -125q-18 -10 -27.5 -8t-19.5 14l-53 76q-8 10 -3 21.5z" />
<glyph unicode="&#x2dc;" horiz-adv-x="778" d="M71 1216.5q-3 14.5 1 24.5q8 14 24.5 43t43 57.5t62.5 50t83 21.5q39 0 67.5 -17.5t52 -39t47 -39t52.5 -17.5q27 0 43 19.5t28.5 39t25.5 31t36 -5.5l57 -41q14 -10 13.5 -27.5t-11.5 -35.5q-8 -14 -23.5 -41t-40 -52.5t-58 -44t-76.5 -18.5q-41 0 -71 17.5t-55.5 39 t-49 40t-48.5 18.5q-29 0 -43 -19.5t-26 -39t-25.5 -31.5t-36.5 2l-59 43q-10 8 -13 22.5z" />
<glyph unicode="&#x2000;" horiz-adv-x="1003" />
<glyph unicode="&#x2001;" horiz-adv-x="2007" />
<glyph unicode="&#x2002;" horiz-adv-x="1003" />
<glyph unicode="&#x2003;" horiz-adv-x="2007" />
<glyph unicode="&#x2004;" horiz-adv-x="669" />
<glyph unicode="&#x2005;" horiz-adv-x="501" />
<glyph unicode="&#x2006;" horiz-adv-x="334" />
<glyph unicode="&#x2007;" horiz-adv-x="334" />
<glyph unicode="&#x2008;" horiz-adv-x="250" />
<glyph unicode="&#x2009;" horiz-adv-x="401" />
<glyph unicode="&#x200a;" horiz-adv-x="111" />
<glyph unicode="&#x2010;" horiz-adv-x="755" d="M111 430v137q0 39 39 39h456q39 0 39 -39v-137q0 -16 -11 -26.5t-28 -10.5h-456q-16 0 -27.5 10.5t-11.5 26.5z" />
<glyph unicode="&#x2011;" horiz-adv-x="755" d="M111 430v137q0 39 39 39h456q39 0 39 -39v-137q0 -16 -11 -26.5t-28 -10.5h-456q-16 0 -27.5 10.5t-11.5 26.5z" />
<glyph unicode="&#x2012;" horiz-adv-x="755" d="M111 430v137q0 39 39 39h456q39 0 39 -39v-137q0 -16 -11 -26.5t-28 -10.5h-456q-16 0 -27.5 10.5t-11.5 26.5z" />
<glyph unicode="&#x2013;" horiz-adv-x="1103" d="M109 467v76q0 39 38 39h809q39 0 39 -39v-76q0 -16 -11 -26.5t-28 -10.5h-809q-16 0 -27 10.5t-11 26.5z" />
<glyph unicode="&#x2014;" horiz-adv-x="1554" d="M109 467v76q0 39 38 39h1260q39 0 39 -39v-76q0 -16 -11.5 -26.5t-27.5 -10.5h-1260q-16 0 -27 10.5t-11 26.5z" />
<glyph unicode="&#x2018;" horiz-adv-x="405" d="M49 1069q0 74 21.5 135.5t51.5 107.5t60.5 77.5t50.5 50.5q27 20 46 -2l30 -31q20 -25 -6 -45q-8 -8 -30.5 -27.5t-46 -51.5t-43 -75t-19.5 -96q4 0 20.5 5t42.5 5q55 0 96.5 -40t41.5 -97q0 -55 -42.5 -96t-105.5 -41q-29 0 -58.5 11t-54 37t-40 68t-15.5 105z" />
<glyph unicode="&#x2019;" horiz-adv-x="401" d="M43 1317q0 57 41 97t104 40q27 0 57.5 -10t55.5 -36t41 -68t16 -105q0 -76 -21.5 -136.5t-51 -106.5t-60 -77.5t-51.5 -50.5q-27 -18 -47 2l-29 29q-10 10 -8 23.5t12 23.5q8 6 31 25.5t47.5 51.5t43 76t18.5 97q-2 0 -19.5 -5t-42.5 -5q-57 0 -97 39t-40 96z" />
<glyph unicode="&#x201a;" horiz-adv-x="466" d="M76 117q0 55 42 96t105 41q27 0 57.5 -11.5t55 -37t41 -67.5t16.5 -105q0 -74 -21.5 -135.5t-51 -107.5t-60.5 -77.5t-51 -50.5q-27 -20 -47 2l-31 31q-10 10 -7 22.5t13 22.5q8 6 30.5 25.5t46.5 51t43 76t19 97.5q-2 0 -19 -5t-44 -5q-55 0 -96 40t-41 97z" />
<glyph unicode="&#x201c;" horiz-adv-x="802" d="M49 1071q0 74 21.5 135.5t51.5 107.5t60.5 77.5t50.5 50.5q27 20 46 -2l30 -29q10 -10 8 -23.5t-14 -23.5q-8 -6 -30.5 -26.5t-46 -52.5t-43 -75t-19.5 -96q4 0 20.5 5t42.5 5q55 0 96.5 -38.5t41.5 -96.5q0 -57 -42.5 -97t-105.5 -40q-29 0 -58.5 10t-54 36t-40 68 t-15.5 105zM442 1071q0 74 21.5 135.5t51.5 107.5t60.5 77.5t51.5 50.5q27 20 47 -2l31 -29q10 -10 7 -23.5t-14 -23.5q-8 -6 -30.5 -26.5t-46 -52.5t-43 -75t-19.5 -96q2 0 19.5 5t44.5 5q55 0 96 -38.5t41 -96.5q0 -57 -42.5 -97t-105.5 -40q-29 0 -58.5 10t-54 36t-41 68 t-16.5 105z" />
<glyph unicode="&#x201d;" horiz-adv-x="796" d="M43 1317q0 57 41 97t104 40q27 0 57.5 -10t55.5 -36t41 -68t16 -105q0 -76 -21.5 -136.5t-51 -106.5t-60 -77.5t-51.5 -50.5q-27 -18 -47 2l-29 29q-10 10 -8 23.5t12 23.5q8 6 31 25.5t47.5 51.5t43 76t18.5 97q-2 0 -19.5 -5t-42.5 -5q-57 0 -97 39t-40 96zM436 1317 q0 57 42 97t106 40q27 0 57.5 -10t55 -36t41 -68t16.5 -105q0 -76 -21.5 -136.5t-51.5 -106.5t-60.5 -77.5t-51.5 -50.5q-27 -20 -47 2l-30 29q-10 10 -7.5 23.5t13.5 23.5q8 6 30.5 25.5t46 51.5t43 76t19.5 97q-2 0 -19.5 -5t-44.5 -5q-55 0 -96 39t-41 96z" />
<glyph unicode="&#x201e;" horiz-adv-x="862" d="M78 117q0 55 41 96t104 41q27 0 57.5 -11.5t55 -37t41 -67.5t16.5 -105q0 -74 -21.5 -135.5t-51 -107.5t-60.5 -77.5t-51 -50.5q-12 -10 -23.5 -10t-23.5 12l-29 31q-10 10 -8 22.5t12 22.5q8 6 30.5 25.5t47.5 51t43 76t18 97.5q-2 0 -19 -5t-42 -5q-57 0 -97 40t-40 97 zM471 117q0 55 42 96t105 41q27 0 58 -11.5t55.5 -37t40.5 -67.5t16 -105q0 -74 -21.5 -135.5t-51 -107.5t-60 -77.5t-51.5 -50.5q-27 -20 -47 2l-31 31q-10 10 -7 22.5t13 22.5q8 6 31 25.5t46.5 51t43 76t19.5 97.5q-2 0 -19.5 -5t-44.5 -5q-55 0 -96 40t-41 97z" />
<glyph unicode="&#x2022;" horiz-adv-x="796" d="M129 459q0 55 21.5 105t57.5 87t84 58.5t101 21.5q55 0 105.5 -21.5t87.5 -58.5t58.5 -87t21.5 -105q0 -53 -21.5 -101.5t-58.5 -84t-87.5 -57t-105.5 -21.5q-53 0 -101 21.5t-84 57t-57.5 84t-21.5 101.5z" />
<glyph unicode="&#x2026;" horiz-adv-x="1368" d="M96 127q0 61 43 104t103 43q61 0 105 -43t44 -104q0 -59 -44 -103t-105 -44q-59 0 -102.5 44t-43.5 103zM541 127q0 61 43 104t102 43q61 0 105.5 -43t44.5 -104q0 -59 -44 -103t-106 -44q-59 0 -102 44t-43 103zM977 127q0 61 43 104t104 43t104.5 -43t43.5 -104 q0 -59 -43 -103t-105 -44q-61 0 -104 44t-43 103z" />
<glyph unicode="&#x202f;" horiz-adv-x="401" />
<glyph unicode="&#x2039;" horiz-adv-x="555" d="M45 422.5q2 13.5 8 23.5l223 304q4 8 14.5 16t22.5 8h117q27 0 35 -19.5t-4 -43.5l-139 -285l133 -301q10 -25 3 -43.5t-34 -18.5h-127q-18 0 -31 17l-213 317q-10 12 -8 25.5z" />
<glyph unicode="&#x203a;" horiz-adv-x="555" d="M88 755q8 19 35 19h117q12 0 22 -8t14 -16l224 -304q6 -10 8 -23t-8 -26l-213 -317q-12 -16 -31 -17h-127q-27 0 -34 18.5t3 43.5l133 301l-139 285q-12 25 -4 44z" />
<glyph unicode="&#x205f;" horiz-adv-x="501" />
<glyph unicode="&#x20ac;" horiz-adv-x="1470" d="M41 551v27q0 16 10 27t27 11h80q-6 49 -6 99v21.5t2 21.5h-76q-16 0 -26.5 11t-10.5 28v26q0 16 10 27.5t27 11.5h88q25 127 91.5 235.5t162.5 187.5t216 124t255 45q156 0 273.5 -48t221.5 -142q31 -29 3 -58l-123 -127q-10 -12 -26.5 -12t-29.5 12q-66 59 -146.5 89 t-166.5 30q-80 0 -150.5 -25.5t-127 -70.5t-97.5 -106.5t-61 -133.5h477q16 0 27.5 -11t11.5 -28v-30q0 -16 -11.5 -26.5t-27.5 -10.5h-498v-35q0 -27 2 -52.5t9 -52.5h405q16 0 27.5 -11t11.5 -27v-29q0 -16 -11.5 -26.5t-27.5 -10.5h-369q53 -117 163 -190.5t249 -73.5 q92 0 170 31.5t143 85.5q12 10 26.5 10t25.5 -10l127 -132q12 -10 10 -27.5t-12 -27.5q-104 -102 -232.5 -150t-265.5 -48q-127 0 -241.5 39.5t-208 110.5t-161 168t-100.5 214h-102q-16 0 -26.5 11.5t-10.5 27.5z" />
<glyph unicode="&#x2122;" horiz-adv-x="1476" d="M88 1321v74q0 16 11.5 27.5t27.5 11.5h420q16 0 27.5 -11.5t11.5 -27.5v-74q0 -39 -39 -39h-131v-455q0 -16 -11.5 -27.5t-27.5 -11.5h-80q-16 0 -27.5 11.5t-11.5 27.5v455h-131q-16 0 -27.5 11.5t-11.5 27.5zM653 836l107 577q2 12 11 21.5t28 9.5h8q14 0 22.5 -7 t12.5 -16l178 -379l182 379q10 23 35 23h8q16 0 26.5 -9.5t12.5 -21.5l109 -579q4 -18 -8.5 -32t-30.5 -14h-80q-14 0 -24.5 10.5t-14.5 24.5l-45 256l-131 -278q-8 -18 -33 -19h-12q-25 0 -35 21l-125 276l-49 -258q-2 -12 -14.5 -22.5t-24.5 -10.5h-74q-20 0 -31.5 14.5 t-7.5 33.5z" />
<glyph unicode="&#xe000;" horiz-adv-x="819" d="M0 0v819h819v-819h-819z" />
</font>
</defs>
</svg>
